<svg width="40" height="40" viewBox="0 0 40 40" fill="none" xmlns="http://www.w3.org/2000/svg">
<path d="M21.5625 19.2188C21.1312 19.2188 20.7812 19.5687 20.7812 20C20.7812 20.4312 21.1312 20.7812 21.5625 20.7812C21.9937 20.7812 22.3438 20.4312 22.3438 20C22.3438 19.5687 21.9937 19.2188 21.5625 19.2188Z" fill="#3BB667"/>
<path d="M36.875 2.03125H3.125C1.40188 2.03125 0 3.43313 0 5.15625C0 6.88258 1.39828 8.28125 3.125 8.28125H3.99953L16.0938 23.3991V37.1875C16.0938 37.4583 16.234 37.7098 16.4643 37.852C16.6946 37.9945 16.9823 38.0073 17.2244 37.8862L23.4744 34.7612C23.7391 34.6289 23.9062 34.3584 23.9062 34.0625V23.3991L36.0005 8.28125H36.875C38.5981 8.28125 40 6.87937 40 5.15625C40 3.42992 38.6017 2.03125 36.875 2.03125ZM22.3438 33.5797L17.6562 35.9234V23.9062H22.3438V33.5797ZM22.7495 22.3438H17.2505L6.00047 8.28125H33.9995L22.7495 22.3438ZM36.875 6.71875H3.125C2.26211 6.71875 1.5625 6.01922 1.5625 5.15625C1.5625 4.29469 2.26344 3.59375 3.125 3.59375H36.875C37.7379 3.59375 38.4375 4.29328 38.4375 5.15625C38.4375 6.01781 37.7366 6.71875 36.875 6.71875Z" fill="#3BB667"/>
<path d="M29.6114 10.0149C29.2745 9.74525 28.7828 9.80002 28.5133 10.1369L22.9406 17.1025C22.6711 17.4395 22.7258 17.9311 23.0626 18.2006C23.3989 18.4696 23.8906 18.4163 24.1608 18.0786L29.7334 11.113C30.003 10.776 29.9484 10.2845 29.6114 10.0149Z" fill="#3BB667"/>
</svg>
