<svg width="40" height="40" viewBox="0 0 40 40" fill="none" xmlns="http://www.w3.org/2000/svg">
<g clip-path="url(#clip0_23_11)">
<path d="M20.9892 19.0118C20.6837 18.7063 20.1892 18.7063 19.8837 19.0118C19.579 19.3165 19.579 19.811 19.8837 20.1165C20.1892 20.4212 20.6837 20.4212 20.9892 20.1165C21.2939 19.811 21.2939 19.3165 20.9892 19.0118Z" fill="#3BB667"/>
<path d="M30.9322 9.06799C29.4056 7.5415 26.9344 7.54143 25.4077 9.06799C23.8852 10.5906 23.8851 13.0687 25.408 14.5925C26.9311 16.1147 29.4092 16.1153 30.9322 14.5924C32.4586 13.0659 32.4589 10.5946 30.9322 9.06799ZM29.8273 13.4874C28.9138 14.401 27.4268 14.401 26.5128 13.4876C25.5991 12.5734 25.5991 11.0863 26.5127 10.1728C27.4285 9.25697 28.9113 9.25681 29.8273 10.1728C30.7432 11.0886 30.7433 12.5715 29.8273 13.4874Z" fill="#3BB667"/>
<path d="M39.771 0.228835C39.6176 0.0754763 39.4082 -0.00764858 39.1905 0.00055453C39.0139 0.00688264 34.808 0.175945 29.8084 1.94305C25.8022 3.35758 22.4629 5.38281 19.8833 7.96249C19.3053 8.54054 18.7428 9.15351 18.2046 9.7903C15.6539 8.2889 13.61 8.75968 12.3179 9.45116C9.34285 11.0433 7.50137 15.3665 7.50137 18.4586C7.50161 18.7746 7.692 19.0595 7.98387 19.1804C8.08051 19.2204 8.18208 19.2399 8.2827 19.2399C8.48606 19.2399 8.68582 19.1604 8.83528 19.0111C10.4043 17.4421 12.3395 17.5402 12.9717 17.6233L13.2453 17.8969C12.7068 19.1782 12.2731 20.4522 11.955 21.6914C11.8401 22.1398 11.8789 22.6143 12.0496 23.0484C11.2974 23.395 10.5717 23.904 9.93981 24.5359C7.92879 26.547 7.52044 31.4481 7.50403 31.6557C7.48606 31.8836 7.56872 32.108 7.73036 32.2696C7.87747 32.4167 8.07645 32.4985 8.2827 32.4985C8.30317 32.4985 8.32372 32.4977 8.34426 32.496C8.55192 32.4797 13.4532 32.0714 15.4642 30.0603C16.0958 29.4287 16.6047 28.7031 16.9514 27.951C17.4109 28.1318 17.8839 28.154 18.3092 28.045C19.5478 27.727 20.8217 27.2934 22.1031 26.7549L22.3767 27.0285C22.4597 27.6607 22.5578 29.596 20.9889 31.1648C20.7656 31.3882 20.6987 31.7242 20.8196 32.0161C20.9405 32.3081 21.2253 32.4984 21.5413 32.4984C24.6335 32.4984 28.9566 30.6569 30.5487 27.6818C31.2402 26.3899 31.711 24.346 30.2096 21.7953C30.8461 21.2573 31.4591 20.6948 32.0374 20.1165C34.6171 17.5368 36.6423 14.1976 38.0568 10.1916C39.824 5.19179 39.993 0.985865 39.9993 0.809303C40.0071 0.592507 39.9244 0.382273 39.771 0.228835ZM9.24809 16.7783C9.7334 14.4296 11.143 11.8523 13.0555 10.8287C14.3335 10.1448 15.7305 10.2119 17.2158 11.0249C15.9504 12.6891 14.8503 14.4821 13.9334 16.3754C13.9218 16.3683 13.7811 16.1915 13.5199 16.1326C13.4125 16.1083 11.3454 15.6636 9.24809 16.7783ZM14.3593 28.9554C13.2851 30.0296 10.7652 30.5962 9.17246 30.8275C9.40387 29.2347 9.97051 26.7149 11.0446 25.6407C11.6462 25.0392 12.3437 24.5831 13.0448 24.3262L15.6739 26.9553C15.417 27.6564 14.961 28.3539 14.3593 28.9554ZM17.921 26.5314C17.6949 26.5893 17.4331 26.5043 17.2384 26.31C16.2277 25.2993 15.8323 24.9039 15.7082 24.7799C15.4807 24.5524 14.9228 23.9945 13.6906 22.7621C13.4957 22.5669 13.4107 22.3051 13.4685 22.0794C13.7187 21.1049 14.046 20.105 14.4439 19.0956L20.9045 25.5561C19.8949 25.9542 18.8952 26.2814 17.921 26.5314ZM29.1713 26.9446C28.1477 28.857 25.5706 30.2667 23.222 30.7519C23.9708 29.3428 24.1359 27.5489 23.8623 26.4612C23.7988 26.2086 23.6339 26.0815 23.6247 26.0666C25.5179 25.1496 27.3108 24.0496 28.9752 22.7842C29.7882 24.2696 29.8552 25.6668 29.1713 26.9446ZM30.9327 19.0117C30.2288 19.7156 29.4707 20.3957 28.6796 21.0329C26.7779 22.5642 24.6848 23.8612 22.4517 24.8937L15.1064 17.5486C16.1389 15.3153 17.4359 13.2222 18.967 11.3207C19.6048 10.529 20.2848 9.77093 20.9885 9.06733C23.3029 6.75281 26.2899 4.91078 29.869 3.58484L36.4152 10.1311C35.0894 13.7101 33.2474 16.6971 30.9327 19.0117ZM36.9773 8.48335L31.5167 3.02274C34.4918 2.09868 37.08 1.75266 38.3719 1.62829C38.2474 2.92039 37.9013 5.50859 36.9773 8.48335Z" fill="#3BB667"/>
<path d="M18.779 32.2694C18.4737 31.9643 17.979 31.9645 17.674 32.2695L15.4647 34.4797C15.1597 34.7848 15.1597 35.2795 15.4648 35.5845C15.7701 35.8895 16.2647 35.8895 16.5697 35.5844L18.7791 33.3742C19.0841 33.0691 19.084 32.5744 18.779 32.2694Z" fill="#3BB667"/>
<path d="M7.73078 21.2211C7.42578 20.9159 6.93117 20.9159 6.62594 21.2209L4.41578 23.4303C4.11063 23.7353 4.11055 24.23 4.41555 24.5351C4.72047 24.8401 5.21508 24.8404 5.52039 24.5353L7.73055 22.3259C8.0357 22.0209 8.03578 21.5262 7.73078 21.2211Z" fill="#3BB667"/>
<path d="M13.2549 33.3749C12.95 33.0699 12.4552 33.0699 12.1501 33.3749L6.85787 38.6663C6.55272 38.9713 6.55272 39.466 6.8578 39.7711C7.16272 40.0762 7.65748 40.0763 7.96264 39.7712L13.2548 34.4798C13.56 34.1747 13.56 33.68 13.2549 33.3749Z" fill="#3BB667"/>
<path d="M7.00489 33.3749C6.69989 33.0699 6.20513 33.0699 5.90005 33.3749L0.607874 38.6663C0.302719 38.9713 0.302719 39.466 0.607796 39.7711C0.912718 40.0762 1.40748 40.0763 1.71264 39.7712L7.00482 34.4798C7.30997 34.1747 7.30997 33.68 7.00489 33.3749Z" fill="#3BB667"/>
<path d="M6.62513 26.7451C6.32013 26.4401 5.82536 26.4401 5.52029 26.7452L0.22889 32.0373C-0.0761876 32.3425 -0.0761876 32.8371 0.228968 33.1423C0.534046 33.4473 1.02873 33.4473 1.33381 33.1422L6.62521 27.85C6.93028 27.5449 6.93028 27.0503 6.62513 26.7451Z" fill="#3BB667"/>
<path d="M24.3033 15.6968C23.9982 15.3917 23.5036 15.3917 23.1984 15.6968L22.0937 16.8015C21.7887 17.1066 21.7887 17.6013 22.0937 17.9064C22.3989 18.2115 22.8935 18.2115 23.1987 17.9064L24.3033 16.8017C24.6084 16.4967 24.6084 16.002 24.3033 15.6968Z" fill="#3BB667"/>
</g>
<defs>
<clipPath id="clip0_23_11">
<rect width="40" height="40" fill="white"/>
</clipPath>
</defs>
</svg>
