<svg width="40" height="40" viewBox="0 0 40 40" fill="none" xmlns="http://www.w3.org/2000/svg">
<path d="M9.84375 14.5312C9.4125 14.5312 9.0625 14.8812 9.0625 15.3125C9.0625 15.7437 9.4125 16.0938 9.84375 16.0938C10.275 16.0938 10.625 15.7437 10.625 15.3125C10.625 14.8812 10.275 14.5312 9.84375 14.5312Z" fill="#3BB667"/>
<path d="M31.7188 3.125C31.2873 3.125 30.9375 3.47477 30.9375 3.90625C30.9375 4.33773 31.2873 4.6875 31.7188 4.6875C33.0111 4.6875 34.0625 5.73891 34.0625 7.03125C34.0625 7.46273 34.4123 7.8125 34.8438 7.8125C35.2752 7.8125 35.625 7.46273 35.625 7.03125C35.625 4.87734 33.8727 3.125 31.7188 3.125Z" fill="#3BB667"/>
<path d="M31.7188 29.0625C31.2873 29.0625 30.9375 29.4123 30.9375 29.8438C30.9375 30.2752 31.2873 30.625 31.7188 30.625C33.0111 30.625 34.0625 31.6764 34.0625 32.9688C34.0625 33.4002 34.4123 33.75 34.8438 33.75C35.2752 33.75 35.625 33.4002 35.625 32.9688C35.625 30.8148 33.8727 29.0625 31.7188 29.0625Z" fill="#3BB667"/>
<path d="M31.7188 25.9375C29.4752 25.9375 27.3721 27.0181 26.056 28.802L17.6516 23.5919C18.167 22.4718 18.4375 21.2443 18.4375 20C18.4375 18.7557 18.167 17.5282 17.6516 16.408L26.056 11.198C27.372 12.9819 29.4752 14.0625 31.7188 14.0625C35.5958 14.0625 38.75 10.9083 38.75 7.03125C38.75 3.15422 35.5958 0 31.7188 0C27.8417 0 24.6875 3.15422 24.6875 7.03125C24.6875 8.00219 24.8894 8.96133 25.2743 9.84414L16.8711 15.0536C15.2712 12.786 12.6472 11.4062 9.84375 11.4062C5.10516 11.4062 1.25 15.2614 1.25 20C1.25 24.7386 5.10516 28.5938 9.84375 28.5938C12.6473 28.5938 15.2716 27.214 16.8711 24.9464L25.2743 30.1559C24.8893 31.0387 24.6875 31.9978 24.6875 32.9688C24.6875 36.8458 27.8417 40 31.7188 40C35.5958 40 38.75 36.8458 38.75 32.9688C38.75 29.0917 35.5958 25.9375 31.7188 25.9375ZM31.7188 1.5625C34.7342 1.5625 37.1875 4.01578 37.1875 7.03125C37.1875 10.0467 34.7342 12.5 31.7188 12.5C29.7626 12.5 27.9427 11.4441 26.9694 9.74461C26.4988 8.92273 26.25 7.98453 26.25 7.03125C26.25 4.01578 28.7033 1.5625 31.7188 1.5625ZM15.9501 23.4884C14.6992 25.6737 12.3594 27.0312 9.84375 27.0312C5.96672 27.0312 2.8125 23.877 2.8125 20C2.8125 16.123 5.96672 12.9688 9.84375 12.9688C12.3594 12.9688 14.6992 14.3263 15.9501 16.5116C15.9502 16.5116 15.9502 16.5118 15.9503 16.512C16.5552 17.5673 16.875 18.7735 16.875 20C16.875 21.2265 16.5552 22.4327 15.9501 23.4884ZM31.7188 38.4375C28.7033 38.4375 26.25 35.9842 26.25 32.9688C26.25 32.0155 26.4988 31.0773 26.9694 30.2555C27.9427 28.5559 29.7626 27.5 31.7188 27.5C34.7342 27.5 37.1875 29.9533 37.1875 32.9688C37.1875 35.9842 34.7342 38.4375 31.7188 38.4375Z" fill="#3BB667"/>
<path d="M13.2816 15.7493C12.9464 15.4777 12.4545 15.5293 12.1829 15.8645C11.9112 16.1998 11.9629 16.6917 12.2981 16.9634C13.2208 17.7109 13.75 18.8178 13.75 20.0001C13.75 22.154 11.9977 23.9063 9.84375 23.9063C9.41234 23.9063 9.0625 24.2561 9.0625 24.6876C9.0625 25.1191 9.41234 25.4688 9.84375 25.4688C12.8592 25.4688 15.3125 23.0155 15.3125 20.0001C15.3125 18.3443 14.5723 16.7949 13.2816 15.7493Z" fill="#3BB667"/>
</svg>
