<svg width="205" height="50" viewBox="0 0 205 50" fill="none" xmlns="http://www.w3.org/2000/svg">
<path d="M76.5722 23.4203C79.5341 21.9093 81.6694 18.3379 81.6694 14.4918C81.6694 6.31868 74.9191 0.686817 65.758 0.686817H46.1959V49.3132H66.1024C76.6411 49.3132 83.598 44.2994 83.598 34.6841C83.598 30.9753 82.0827 26.2363 76.5722 23.4203ZM65.758 11.0577C68.8576 11.0577 70.3041 13.1868 70.3041 15.3159C70.3041 17.5137 68.7887 19.7115 65.758 19.7115H58.5944V11.0577H65.758ZM65.758 38.5302H58.5944V28.5714H65.758C69.4086 28.5714 71.2684 31.1126 71.2684 33.5852C71.2684 36.0577 69.4775 38.5302 65.758 38.5302Z" fill="white"/>
<path d="M116.409 49.3132H129.634L112.208 0.686817H100.98L83.9667 49.3132H97.1917L100.222 39.5604H113.172L116.409 49.3132ZM106.559 14.4231H106.904L110.279 28.6401H102.978L105.664 17.9945L106.559 14.4231Z" fill="white"/>
<path d="M146.42 50C156.408 50 165.776 44.2308 165.776 34.1346C165.776 24.3819 158.681 20.8104 148.9 18.8874C145.043 18.1319 142.563 16.6896 142.425 14.3544C142.563 11.4698 144.905 10.0275 147.867 10.0275C150.691 10.0275 153.997 11.3324 156.477 13.9423L164.536 7.76099C159.508 1.64835 153.791 0 147.867 0C138.912 0 130.233 5.01374 130.233 14.5604C130.233 23.8324 137.397 28.7775 145.249 30.0137C149.244 30.6319 153.584 32.0742 153.584 34.7527C153.584 37.294 151.035 38.5989 147.867 38.5989C144.423 38.5989 140.152 37.0192 137.604 33.9286L129.82 41.2088C134.366 47.0467 140.565 50 146.42 50Z" fill="white"/>
<path d="M205 12.2253V0.686817H171.042V49.3132H205V37.706H183.509V30.4258H203.278V19.7802H183.509V12.2253H205Z" fill="white"/>
<path d="M19.4243 50C29.1365 50 38.9175 44.2994 38.9175 32.8983V0.686817H26.4501V32.8983C26.4501 36.8132 22.9372 38.7363 19.4243 38.7363C15.9803 38.7363 12.4674 36.8132 12.4674 32.8983V0.686817H0V32.8983C0 44.2994 9.71216 50 19.4243 50Z" fill="#B80B1E"/>
</svg>
