<svg class="main-5-ico" width="40" height="40" viewBox="0 0 40 40" fill="" xmlns="http://www.w3.org/2000/svg">
<g clip-path="url(#clip0_35_180)">
<path d="M20 28.125C16.8981 28.125 14.375 30.6488 14.375 33.75C14.375 36.8512 16.8981 39.375 20 39.375C23.1019 39.375 25.625 36.8512 25.625 33.75C25.625 30.6488 23.1019 28.125 20 28.125ZM17.6106 37.4106C17.9225 36.3725 18.8888 35.625 20 35.625C21.1112 35.625 22.0775 36.3725 22.3894 37.4106C21.7013 37.8606 20.8812 38.125 20 38.125C19.1188 38.125 18.2987 37.8606 17.6106 37.4106ZM18.75 33.125C18.75 32.4356 19.3106 31.875 20 31.875C20.6894 31.875 21.25 32.4356 21.25 33.125C21.25 33.8144 20.6894 34.375 20 34.375C19.3106 34.375 18.75 33.8144 18.75 33.125ZM23.3769 36.5281C23.0369 35.815 22.485 35.2294 21.8006 34.8506C22.2319 34.4019 22.5 33.795 22.5 33.125C22.5 31.7462 21.3787 30.625 20 30.625C18.6213 30.625 17.5 31.7462 17.5 33.125C17.5 33.795 17.7681 34.4019 18.1994 34.8513C17.515 35.23 16.9638 35.815 16.6231 36.5287C16 35.7719 15.625 34.8038 15.625 33.75C15.625 31.3375 17.5881 29.375 20 29.375C22.4119 29.375 24.375 31.3375 24.375 33.75C24.375 34.8038 24 35.7719 23.3769 36.5281Z" />
<path d="M20 0.625C16.8981 0.625 14.375 3.14875 14.375 6.25C14.375 6.97813 14.5188 7.67188 14.7713 8.31125C14.4494 8.19875 14.1094 8.125 13.75 8.125C12.7163 8.125 11.875 8.96688 11.875 10V11.545C11.875 12.6862 11.2669 13.76 10.2881 14.3475C9.36375 14.9025 8.66687 15.7712 8.32687 16.7931L8.3125 16.8369L0.625 16.1962V26.875H20C21.0338 26.875 21.875 26.0338 21.875 25C21.875 24.7531 21.8244 24.5187 21.7375 24.3031C22.5344 24.0862 23.125 23.3644 23.125 22.5C23.125 22.0181 22.9369 21.5825 22.6375 21.25C22.9375 20.9175 23.125 20.4819 23.125 20C23.125 19.5181 22.9369 19.0825 22.6375 18.75C22.9375 18.4175 23.125 17.9819 23.125 17.5C23.125 16.4669 22.2844 15.625 21.2506 15.625H18.125C17.4356 15.625 16.875 15.0644 16.875 14.375V11.25C16.875 11.13 16.8525 11.0163 16.8394 10.9C17.7413 11.5144 18.8288 11.875 20 11.875C23.1019 11.875 25.625 9.35125 25.625 6.25C25.625 3.14875 23.1019 0.625 20 0.625ZM8.125 25.625H1.875V17.5544L8.125 18.075V25.625ZM18.125 16.875H21.2506C21.595 16.875 21.875 17.1556 21.875 17.5C21.875 17.8444 21.595 18.125 21.25 18.125H16.875V19.375H21.25C21.595 19.375 21.875 19.6556 21.875 20C21.875 20.3444 21.595 20.625 21.25 20.625H16.875V21.875H21.25C21.595 21.875 21.875 22.1556 21.875 22.5C21.875 22.8444 21.595 23.125 21.25 23.125H16.875V24.375H20C20.345 24.375 20.625 24.655 20.625 25C20.625 25.345 20.345 25.625 20 25.625H9.375V17.6012L9.51312 17.1888C9.75937 16.4494 10.2625 15.8213 10.9319 15.42C12.285 14.6081 13.1256 13.1231 13.1256 11.5456V10.0006C13.1256 9.65625 13.4062 9.37563 13.7506 9.37563C14.7844 9.37563 15.6256 10.2169 15.6256 11.2506V14.3756C15.625 15.7537 16.7463 16.875 18.125 16.875ZM20 10.625C17.5881 10.625 15.625 8.6625 15.625 6.25C15.625 3.8375 17.5881 1.875 20 1.875C22.4119 1.875 24.375 3.8375 24.375 6.25C24.375 8.6625 22.4119 10.625 20 10.625Z" />
<path d="M33.75 14.375C30.6481 14.375 28.125 16.8988 28.125 20C28.125 23.1012 30.6481 25.625 33.75 25.625C36.8519 25.625 39.375 23.1012 39.375 20C39.375 16.8988 36.8519 14.375 33.75 14.375ZM33.75 24.375C31.3381 24.375 29.375 22.4125 29.375 20C29.375 17.5875 31.3381 15.625 33.75 15.625C36.1619 15.625 38.125 17.5875 38.125 20C38.125 22.4125 36.1619 24.375 33.75 24.375Z" />
<path d="M35.625 18.125V20.625H34.375V16.875H33.125V20.625H31.875V19.375H30.625V21.875H36.875V18.125H35.625Z" />
<path d="M19.375 5.625H20.625V6.875H19.375V5.625Z" />
<path d="M21.875 5.625H23.125V6.875H21.875V5.625Z" />
<path d="M16.875 5.625H18.125V6.875H16.875V5.625Z" />
<path d="M33.22 11.582L34.055 12.9126L34.9875 8.24758L33.7619 8.00195L33.4269 9.67883C31.8119 7.54133 29.7831 5.94195 27.1394 4.70508L26.61 5.83758C29.5137 7.1957 31.6144 9.02133 33.22 11.582Z" />
<path d="M4.70499 12.8603L5.83811 13.3897C7.19499 10.4872 9.02061 8.38658 11.5819 6.77971L12.9119 5.94533L8.24749 5.01221L8.00249 6.23721L9.67936 6.57283C7.54061 8.18846 5.94124 10.2172 4.70499 12.8603Z" />
<path d="M6.78001 28.418L5.94501 27.0874L5.01251 31.7524L6.23814 31.998L6.57314 30.3212C8.18814 32.4587 10.2169 34.058 12.8606 35.2949L13.3906 34.1624C10.4863 32.8043 8.38564 30.9787 6.78001 28.418Z" />
<path d="M35.295 27.1392L34.1619 26.6099C32.805 29.5124 30.9794 31.613 28.4181 33.2199L27.0881 34.0542L31.7525 34.9874L31.9981 33.7617L30.3213 33.4261C32.4594 31.8111 34.0588 29.7824 35.295 27.1392Z" />
</g>
<defs>
<clipPath id="clip0_35_180">
<rect width="40" height="40"/>
</clipPath>
</defs>
</svg>
