<svg width="40" height="40" viewBox="0 0 40 40" fill="none" xmlns="http://www.w3.org/2000/svg">
<path d="M29.375 23.75C29.0042 23.75 28.6417 23.86 28.3333 24.066C28.025 24.272 27.7846 24.5649 27.6427 24.9075C27.5008 25.2501 27.4637 25.6271 27.536 25.9908C27.6084 26.3545 27.787 26.6886 28.0492 26.9508C28.3114 27.2131 28.6455 27.3916 29.0092 27.464C29.3729 27.5363 29.7499 27.4992 30.0925 27.3573C30.4351 27.2154 30.728 26.975 30.934 26.6667C31.14 26.3584 31.25 25.9958 31.25 25.625C31.25 25.1277 31.0525 24.6508 30.7008 24.2992C30.3492 23.9475 29.8723 23.75 29.375 23.75ZM29.375 26.25C29.2514 26.25 29.1306 26.2133 29.0278 26.1447C28.925 26.076 28.8449 25.9784 28.7976 25.8642C28.7503 25.75 28.7379 25.6243 28.762 25.5031C28.7861 25.3818 28.8457 25.2705 28.9331 25.1831C29.0205 25.0957 29.1318 25.0361 29.2531 25.012C29.3743 24.9879 29.5 25.0003 29.6142 25.0476C29.7284 25.0949 29.826 25.175 29.8947 25.2778C29.9634 25.3806 30 25.5014 30 25.625C30 25.7908 29.9342 25.9497 29.8169 26.0669C29.6997 26.1842 29.5408 26.25 29.375 26.25Z" fill="#003F50"/>
<path d="M10.625 23.75C10.2542 23.75 9.89165 23.86 9.58331 24.066C9.27496 24.272 9.03464 24.5649 8.89273 24.9075C8.75081 25.2501 8.71368 25.6271 8.78603 25.9908C8.85838 26.3545 9.03695 26.6886 9.29918 26.9508C9.5614 27.2131 9.89549 27.3916 10.2592 27.464C10.6229 27.5363 10.9999 27.4992 11.3425 27.3573C11.6851 27.2154 11.978 26.975 12.184 26.6667C12.39 26.3584 12.5 25.9958 12.5 25.625C12.5 25.1277 12.3025 24.6508 11.9508 24.2992C11.5992 23.9475 11.1223 23.75 10.625 23.75ZM10.625 26.25C10.5014 26.25 10.3805 26.2133 10.2778 26.1447C10.175 26.076 10.0949 25.9784 10.0476 25.8642C10.0003 25.75 9.98789 25.6243 10.012 25.5031C10.0361 25.3818 10.0956 25.2705 10.1831 25.1831C10.2705 25.0957 10.3818 25.0361 10.5031 25.012C10.6243 24.9879 10.75 25.0003 10.8642 25.0476C10.9784 25.0949 11.076 25.175 11.1447 25.2778C11.2133 25.3806 11.25 25.5014 11.25 25.625C11.25 25.7908 11.1842 25.9497 11.0669 26.0669C10.9497 26.1842 10.7908 26.25 10.625 26.25Z" fill="#003F50"/>
<path d="M10 18.75H12.5V20H10V18.75Z" fill="#003F50"/>
<path d="M13.75 18.75H16.25V20H13.75V18.75Z" fill="#003F50"/>
<path d="M35.125 17.5123L29.025 16.2923L22.2706 10.7661C22.1864 10.6967 22.0852 10.6509 21.9775 10.6336C16.9543 9.88941 11.8491 9.88646 6.82501 10.6248H3.12501V11.8748H4.94938C3.62174 13.3213 2.41929 14.878 1.35501 16.5279C1.28672 16.6308 1.2502 16.7514 1.25001 16.8748V20.6248C1.24894 20.7215 1.27034 20.8172 1.31251 20.9042L1.87501 22.0223V22.9773L1.31563 24.0955C1.27238 24.1822 1.24992 24.2779 1.25001 24.3748V25.6248C1.25001 25.7906 1.31586 25.9496 1.43307 26.0668C1.55028 26.184 1.70925 26.2498 1.87501 26.2498H6.30001C6.44944 27.2904 6.96901 28.2422 7.76341 28.9306C8.55781 29.6191 9.57379 29.9981 10.625 29.9981C11.6762 29.9981 12.6922 29.6191 13.4866 28.9306C14.281 28.2422 14.8006 27.2904 14.95 26.2498H25.05C25.1994 27.2904 25.719 28.2422 26.5134 28.9306C27.3078 29.6191 28.3238 29.9981 29.375 29.9981C30.4262 29.9981 31.4422 29.6191 32.2366 28.9306C33.031 28.2422 33.5506 27.2904 33.7 26.2498H38.125C38.2908 26.2498 38.4497 26.184 38.5669 26.0668C38.6842 25.9496 38.75 25.7906 38.75 25.6248V21.8248C38.7245 20.8014 38.3517 19.8171 37.693 19.0335C37.0343 18.2499 36.1288 17.7135 35.125 17.5123ZM34.875 18.7373C35.6687 18.9014 36.3749 19.3506 36.86 19.9998H33.61L33.2113 18.4048L34.875 18.7373ZM2.50001 18.7498H3.75001V19.5117L2.50001 19.8242V18.7498ZM6.30001 24.9998H2.50001V24.5223L2.88626 23.7498H6.67813C6.4897 24.145 6.36221 24.5665 6.30001 24.9998ZM10.625 28.7498C10.0069 28.7498 9.40275 28.5666 8.88885 28.2232C8.37495 27.8798 7.97441 27.3917 7.73788 26.8207C7.50136 26.2497 7.43947 25.6214 7.56005 25.0152C7.68063 24.409 7.97826 23.8522 8.4153 23.4151C8.85234 22.9781 9.40916 22.6804 10.0153 22.5599C10.6215 22.4393 11.2499 22.5012 11.8209 22.7377C12.3919 22.9742 12.88 23.3748 13.2234 23.8887C13.5667 24.4026 13.75 25.0068 13.75 25.6248C13.749 26.4533 13.4195 27.2476 12.8336 27.8334C12.2478 28.4193 11.4535 28.7488 10.625 28.7498ZM25.05 24.9998H14.95C14.8878 24.5665 14.7603 24.145 14.5719 23.7498H25.4281C25.2397 24.145 25.1122 24.5665 25.05 24.9998ZM29.375 28.7498C28.7569 28.7498 28.1528 28.5666 27.6389 28.2232C27.1249 27.8798 26.7244 27.3917 26.4879 26.8207C26.2514 26.2497 26.1895 25.6214 26.3101 25.0152C26.4306 24.409 26.7283 23.8522 27.1653 23.4151C27.6023 22.9781 28.1592 22.6804 28.7654 22.5599C29.3715 22.4393 29.9999 22.5012 30.5709 22.7377C31.1419 22.9742 31.63 23.3748 31.9734 23.8887C32.3167 24.4026 32.5 25.0068 32.5 25.6248C32.499 26.4533 32.1695 27.2476 31.5836 27.8334C30.9978 28.4193 30.2035 28.7488 29.375 28.7498ZM37.5 24.9998H33.7C33.6378 24.5665 33.5103 24.145 33.3219 23.7498H37.5V24.9998ZM37.5 22.4998H32.4306C31.6153 21.6988 30.518 21.2499 29.375 21.2499C28.232 21.2499 27.1347 21.6988 26.3194 22.4998H13.6806C12.8653 21.6988 11.768 21.2499 10.625 21.2499C9.48201 21.2499 8.38472 21.6988 7.56938 22.4998H3.12501V21.8748C3.1251 21.7779 3.10263 21.6822 3.05938 21.5954L2.78251 21.0417L4.52626 20.6042C4.66122 20.5705 4.78109 20.4928 4.8669 20.3834C4.95271 20.2739 4.99955 20.1389 5.00001 19.9998V18.1248C5.00001 17.9591 4.93416 17.8001 4.81695 17.6829C4.69974 17.5657 4.54077 17.4998 4.37501 17.4998H2.50001V17.0623C4.13626 14.6311 6.26126 12.0029 6.87501 11.8748C6.90936 11.8747 6.94364 11.8718 6.97751 11.8661C11.8288 11.1655 16.7549 11.1564 21.6088 11.8392L28.3544 17.3586C28.4334 17.4233 28.5272 17.4676 28.6275 17.4873L31.8581 18.1336L32.5188 20.7761C32.5525 20.9113 32.6305 21.0314 32.7403 21.1173C32.8502 21.2031 32.9856 21.2498 33.125 21.2498H37.4375C37.4775 21.4389 37.4984 21.6315 37.5 21.8248V22.4998Z" fill="#003F50"/>
<path d="M28.75 18.75H30V20H28.75V18.75Z" fill="#003F50"/>
<path d="M26.25 18.75H27.5V20H26.25V18.75Z" fill="#003F50"/>
<path d="M25.3906 16.3869L22.2812 13.9C21.5794 13.2987 20.5144 12.5 19.375 12.5H9.375C7.16625 12.5 6.4375 13.5938 5.73062 14.6519L4.48062 16.5269C4.41752 16.621 4.38118 16.7304 4.37548 16.8436C4.36979 16.9568 4.39497 17.0693 4.44831 17.1693C4.50166 17.2692 4.58117 17.3528 4.67835 17.4111C4.77552 17.4693 4.8867 17.5001 5 17.5H25C25.1295 17.5001 25.2559 17.4599 25.3616 17.385C25.4673 17.3101 25.5471 17.2042 25.59 17.082C25.6329 16.9597 25.6368 16.8272 25.6011 16.7026C25.5653 16.5781 25.4918 16.4678 25.3906 16.3869ZM6.77 15.3469C7.4375 14.3506 7.835 13.75 9.375 13.75H12.5V16.25H6.1675L6.77 15.3469ZM13.75 16.25V13.75H19.375C19.9194 13.75 20.6044 14.1094 21.4844 14.8631L23.2181 16.25H13.75Z" fill="#003F50"/>
</svg>
