<svg fill="#003F50" width="40" height="40" viewBox="0 0 40 40" xmlns="http://www.w3.org/2000/svg">
<path d="M36.0845 27.9616C35.653 27.9616 35.3033 28.3114 35.3033 28.7429V35.1185C35.3033 36.9486 33.8144 38.4375 31.9843 38.4375H7.97084C6.14076 38.4375 4.65186 36.9486 4.65186 35.1185V15.762C4.65186 13.9314 6.14076 12.4422 7.97084 12.4422H16.8744L17.4616 22.9148H13.3598V18.5572C13.3598 17.2641 12.3079 16.2122 11.0147 16.2122C10.3886 16.2122 9.79975 16.4562 9.35756 16.8984C8.91404 17.3407 8.66975 17.9298 8.66975 18.5572V32.328C8.66975 33.621 9.7217 34.673 11.0147 34.673C12.2932 34.673 13.3598 33.6065 13.3598 32.328V27.6049H17.606V32.328C17.606 33.621 18.6579 34.673 19.9511 34.673C21.2294 34.673 22.2962 33.6062 22.2962 32.328V27.6049H26.5423V32.328C26.5423 33.621 27.5943 34.673 28.8874 34.673C30.1657 34.673 31.2324 33.6062 31.2324 32.328V18.5572C31.2324 17.2641 30.1804 16.2122 28.8874 16.2122C28.2601 16.2122 27.6709 16.4564 27.2301 16.8984C26.7866 17.3407 26.5423 17.9298 26.5423 18.5572V22.9148H22.4468L23.0594 12.4422L31.9883 12.4423C33.8162 12.4444 35.3034 13.9336 35.3034 15.762V21.8691C35.3034 22.3005 35.6532 22.6503 36.0847 22.6503C36.5162 22.6503 36.8659 22.3005 36.8659 21.8691V15.762C36.8659 13.073 34.6786 10.8829 31.9892 10.8798L23.1507 10.8797L23.2601 9.00852C23.8344 8.36352 24.1843 7.51453 24.1843 6.58508V3.64906C24.1841 1.63695 22.5472 0 20.5351 0H19.4201C17.408 0 15.771 1.63695 15.771 3.64906V6.58508C15.771 7.50672 16.1152 8.34906 16.6808 8.99203L16.7867 10.8797H7.97084C5.2792 10.8797 3.08936 13.0698 3.08936 15.762V35.1185C3.08936 37.8102 5.2792 40 7.97084 40H31.9843C34.676 40 36.8658 37.8102 36.8658 35.1185V28.7429C36.8658 28.3114 36.516 27.9616 36.0845 27.9616V27.9616ZM18.5187 10.1212C19.1747 10.2878 19.8842 10.24 20.5564 10.2339C20.9208 10.2306 21.2851 10.1755 21.6329 10.0659L20.8387 23.6459C20.8044 24.1812 20.7759 24.7169 20.7447 25.2523C20.7376 25.3748 20.729 25.5175 20.7045 25.6368C20.6314 25.993 20.3285 26.2488 19.9509 26.2488C19.7348 26.2488 19.5251 26.1569 19.3779 25.9987C19.2111 25.8192 19.1791 25.6141 19.1647 25.3797L19.0683 23.6524C19.0681 23.65 19.0676 23.6477 19.0676 23.6454L18.7379 17.7682L18.393 11.6171C18.393 11.617 18.393 11.617 18.393 11.617L18.3058 10.0608C18.3761 10.0834 18.4472 10.103 18.5187 10.1212V10.1212ZM12.5786 26.0424C12.1471 26.0424 11.7973 26.3922 11.7973 26.8237V32.328C11.7973 32.7544 11.4411 33.1105 11.0147 33.1105C10.5833 33.1105 10.2322 32.7595 10.2322 32.328V18.5572C10.2322 18.348 10.3134 18.1518 10.4616 18.0041C10.6096 17.8561 10.806 17.7747 11.0148 17.7747C11.4463 17.7747 11.7974 18.1257 11.7974 18.5572V23.6961C11.7974 24.1276 12.1472 24.4773 12.5787 24.4773H17.5494C17.5622 24.7065 17.5751 24.9356 17.5879 25.1647C17.6044 25.4581 17.605 25.756 17.6776 26.0423H12.5786V26.0424ZM20.7336 32.328C20.7336 32.7541 20.3772 33.1105 19.951 33.1105C19.5195 33.1105 19.1684 32.7595 19.1684 32.328V27.6771C19.6702 27.8553 20.2317 27.8553 20.7335 27.6771V32.328H20.7336ZM27.3234 24.4773C27.7549 24.4773 28.1047 24.1276 28.1047 23.6961V18.5572C28.1047 18.348 28.1858 18.1518 28.3347 18.0033C28.4818 17.8559 28.6779 17.7747 28.8872 17.7747C29.3187 17.7747 29.6697 18.1257 29.6697 18.5572V32.328C29.6697 32.7541 29.3134 33.1105 28.8872 33.1105C28.4557 33.1105 28.1046 32.7595 28.1046 32.328V26.8237C28.1046 26.3922 27.7548 26.0424 27.3233 26.0424H22.2244C22.2942 25.767 22.2964 25.4822 22.3129 25.2001C22.3269 24.9592 22.3411 24.7183 22.3551 24.4774H27.3234V24.4773ZM17.3336 3.64906C17.3336 2.49852 18.2696 1.5625 19.4201 1.5625H20.5351C21.6856 1.5625 22.6216 2.49852 22.6216 3.64906V6.58508C22.6216 7.44781 22.0953 8.19 21.3468 8.50727C20.9246 8.69492 20.4705 8.67164 20.0209 8.67164C19.5751 8.67164 19.1274 8.69984 18.7005 8.54367C17.9035 8.24992 17.3335 7.48281 17.3335 6.58508V3.64906H17.3336Z" fill="white"/>
<path d="M10.323 14.9799C10.5608 15.3335 11.0511 15.4331 11.4066 15.1963C11.7616 14.9598 11.8568 14.4669 11.6222 14.1127C11.3869 13.7574 10.8927 13.6626 10.5394 13.897C10.1847 14.1324 10.0873 14.6263 10.323 14.9799Z" fill="white"/>
<path d="M11.2714 35.6068C10.6153 35.3334 9.95929 36.0487 10.2752 36.6792C10.4238 36.9758 10.759 37.1512 11.0876 37.101C11.4183 37.0505 11.6837 36.7911 11.7419 36.4619C11.8048 36.1072 11.6051 35.7436 11.2714 35.6068V35.6068Z" fill="white"/>
<path d="M29.7019 14.1122C29.4655 13.7578 28.9733 13.6616 28.6191 13.8966C28.2648 14.1317 28.1662 14.6268 28.4027 14.9802C28.6394 15.334 29.1323 15.4314 29.4862 15.1958C29.8428 14.9586 29.9346 14.4676 29.7019 14.1122Z" fill="white"/>
<path d="M29.3511 35.6072C28.6956 35.3341 28.038 36.0488 28.3549 36.6795C28.504 36.976 28.8381 37.1517 29.1673 37.1014C29.498 37.0509 29.7632 36.7916 29.8216 36.4625C29.8847 36.1078 29.6848 35.744 29.3511 35.6072V35.6072Z" fill="white"/>
<path d="M20.6269 35.8953C20.243 35.3091 19.3088 35.5262 19.2053 36.2139C19.0992 36.9186 19.9595 37.3828 20.4924 36.9162C20.7838 36.6611 20.8413 36.2171 20.6269 35.8953V35.8953Z" fill="white"/>
<path d="M36.8957 25.2293C36.7662 24.5401 35.816 24.384 35.4605 24.9802C35.2897 25.2666 35.3212 25.6387 35.5389 25.8917C35.7525 26.1401 36.108 26.2278 36.413 26.1093C36.7608 25.9742 36.97 25.5961 36.8957 25.2293Z" fill="white"/>
</svg>
