<svg width="35" height="35" viewBox="0 0 35 35" fill="none" xmlns="http://www.w3.org/2000/svg">
<g clip-path="url(#clip0_28_13)">
<path d="M6.56396 24.7481C6.53625 24.7481 6.51 24.7466 6.48083 24.7437C2.78687 24.3339 0 21.2189 0 17.5002C0 13.6472 3.00271 10.4841 6.79 10.226C7.79917 5.186 12.2981 1.4585 17.5 1.4585C21.5848 1.4585 25.3473 3.75975 27.2023 7.356C31.6094 7.81829 35 11.5531 35 16.0418C35 19.9502 32.3808 23.4064 28.6329 24.4447C28.2421 24.5541 27.8425 24.3252 27.736 23.9358C27.6281 23.5479 27.8556 23.1454 28.2435 23.0389C31.3629 22.1756 33.5417 19.2968 33.5417 16.0418C33.5417 12.1816 30.5331 8.99079 26.6919 8.77787C26.4221 8.76329 26.1844 8.60141 26.0706 8.35787C24.5277 5.05329 21.1648 2.91683 17.5 2.91683C12.8115 2.91683 8.78354 6.40954 8.13021 11.0397C8.07917 11.3985 7.77146 11.6668 7.40833 11.6668C4.07458 11.6668 1.45833 14.2831 1.45833 17.5002C1.45833 20.4752 3.68667 22.966 6.64417 23.2941C7.04375 23.3393 7.3325 23.6995 7.28729 24.0991C7.24646 24.4725 6.93 24.7481 6.56396 24.7481Z" fill="white"/>
<path d="M13.8542 26.25C13.6675 26.25 13.4808 26.1786 13.3379 26.0371L10.4213 23.1205C10.1369 22.8361 10.1369 22.3738 10.4213 22.0894L13.3379 19.1728C13.6223 18.8884 14.0846 18.8884 14.369 19.1728C14.6533 19.4571 14.6533 19.9194 14.369 20.2038L11.9685 22.6042L14.369 25.0046C14.6533 25.289 14.6533 25.7513 14.369 26.0357C14.2275 26.1786 14.0408 26.25 13.8542 26.25Z" fill="white"/>
<path d="M24.0625 23.3333H11.3006C10.8981 23.3333 10.5715 23.0067 10.5715 22.6042C10.5715 22.2017 10.8981 21.875 11.3006 21.875H24.0625C24.465 21.875 24.7917 22.2017 24.7917 22.6042C24.7917 23.0067 24.465 23.3333 24.0625 23.3333Z" fill="white"/>
<path d="M21.1459 33.5415C20.9592 33.5415 20.7725 33.4701 20.6296 33.3286C20.3452 33.0442 20.3452 32.582 20.6296 32.2976L23.03 29.8972L20.6296 27.4968C20.3452 27.2124 20.3452 26.7501 20.6296 26.4657C20.914 26.1813 21.3763 26.1813 21.6606 26.4657L24.5773 29.3824C24.8617 29.6668 24.8617 30.129 24.5773 30.4134L21.6606 33.3301C21.5192 33.4701 21.3325 33.5415 21.1459 33.5415Z" fill="white"/>
<path d="M23.6994 30.6248H10.9375C10.535 30.6248 10.2083 30.2982 10.2083 29.8957C10.2083 29.4932 10.535 29.1665 10.9375 29.1665H23.6994C24.1019 29.1665 24.4286 29.4932 24.4286 29.8957C24.4286 30.2982 24.1019 30.6248 23.6994 30.6248Z" fill="white"/>
</g>
<defs>
<clipPath id="clip0_28_13">
<rect width="35" height="35" fill="white"/>
</clipPath>
</defs>
</svg>
