<svg width="35" height="35" viewBox="0 0 35 35" fill="none" xmlns="http://www.w3.org/2000/svg">
<g clip-path="url(#clip0_28_109)">
<path d="M19.273 15.5175L19.1073 14.4363C18.7557 14.4904 18.4008 14.5358 18.0464 14.5741L18.1651 15.6613C18.5353 15.6208 18.9061 15.5738 19.273 15.5175Z" fill="white"/>
<path d="M21.4791 15.0474L21.1773 13.9963C20.8557 14.0888 20.5112 14.173 20.1541 14.2484L20.3788 15.3187C20.7616 15.2383 21.1319 15.147 21.4791 15.0474Z" fill="white"/>
<path d="M17.0554 15.7621L16.9766 14.6716C16.6124 14.6979 16.2526 14.7176 15.9015 14.7318L15.9458 15.8244C16.3078 15.8102 16.6791 15.7894 17.0554 15.7621Z" fill="white"/>
<path d="M18.0469 23.3566L18.1655 24.4438C18.5358 24.4033 18.9066 24.3558 19.2735 24.2994L19.1078 23.2183C18.7562 23.2729 18.4013 23.3183 18.0469 23.3566Z" fill="white"/>
<path d="M20.1541 23.0294L20.3788 24.0996C20.766 24.0187 21.1362 23.9274 21.4791 23.8289L21.1773 22.7778C20.8601 22.8686 20.5161 22.9539 20.1541 23.0294Z" fill="white"/>
<path d="M34.4531 12.5781V0.546875H25.7031V12.5781H29.5312V15.3902C28.7662 15.5892 28.1673 16.188 27.9683 16.9531H23.5156V10.9375C23.5156 8.77461 17.4344 8.20312 14.2188 8.20312C11.0031 8.20312 4.92188 8.77461 4.92188 10.9375V19.2932L4.41 18.9891L1.48859 21.9105L2.29797 23.2717C2.21758 23.4451 2.1443 23.6206 2.07922 23.7945L0.546875 24.1845V28.3161L2.07922 28.706C2.1443 28.8799 2.21703 29.0555 2.29797 29.2288L1.48859 30.59L4.41 33.5114L5.77117 32.7026C5.94453 32.783 6.11953 32.8563 6.29398 32.9213L6.68445 34.4531H10.8161L11.206 32.9208C11.3805 32.8557 11.5555 32.7824 11.7288 32.702L13.09 33.5109L16.0114 30.5895L15.202 29.2283C15.2824 29.0549 15.3557 28.8794 15.4208 28.7055L16.9531 28.3155V26.6864C19.0006 26.5169 23.5156 25.9312 23.5156 24.0625V18.0469H27.9683C28.1673 18.812 28.7662 19.4108 29.5312 19.6098V22.4219H25.7031V34.4531H34.4531V22.4219H30.625V19.6098C31.5656 19.3654 32.2656 18.5166 32.2656 17.5C32.2656 16.4834 31.5656 15.6346 30.625 15.3902V12.5781H34.4531ZM14.2188 9.29688C19.5475 9.29688 22.4219 10.4612 22.4219 10.9375C22.4219 11.4138 19.5475 12.5781 14.2188 12.5781C8.89 12.5781 6.01562 11.4138 6.01562 10.9375C6.01562 10.4612 8.89 9.29688 14.2188 9.29688ZM6.01562 12.3271C7.91383 13.3596 11.8453 13.6719 14.2188 13.6719C16.5922 13.6719 20.5237 13.3596 22.4219 12.3271V15.3125C22.4219 15.7888 19.5475 16.9531 14.2188 16.9531C8.89 16.9531 6.01562 15.7888 6.01562 15.3125V12.3271ZM15.8594 27.4657L14.572 27.7927L14.4796 28.0815C14.3817 28.3877 14.2527 28.6973 14.0946 29.0035L13.9557 29.2726L14.6371 30.4183L12.9183 32.1371L11.772 31.4557L11.5024 31.5957C11.1973 31.7532 10.8877 31.8828 10.582 31.9807L10.2933 32.0726L9.9657 33.3594H7.53484L7.20727 32.072L6.91852 31.9802C6.61281 31.8823 6.30328 31.7527 5.99813 31.5952L5.72852 31.4552L4.58227 32.1366L2.86344 30.4177L3.54484 29.272L3.40594 29.003C3.24789 28.6967 3.11883 28.3872 3.02094 28.0809L2.92797 27.7922L1.64062 27.4657V25.0348L2.92797 24.7078L3.02039 24.4191C3.11828 24.1128 3.24734 23.8033 3.40539 23.497L3.5443 23.228L2.86289 22.0823L4.58172 20.3634L5.72797 21.0448L5.99758 20.9048C6.30273 20.7473 6.61227 20.6177 6.91797 20.5198L7.20672 20.428L7.5343 19.1406H9.96516L10.2927 20.428L10.5815 20.5198C10.8872 20.6177 11.1967 20.7473 11.5019 20.9048L11.7715 21.0448L12.9177 20.3634L14.6366 22.0823L13.9552 23.228L14.0941 23.497C14.2521 23.8033 14.3812 24.1128 14.4791 24.4191L14.5715 24.7078L15.8594 25.0343V27.4657ZM16.9531 25.5877V24.1845L15.4208 23.7945C15.3557 23.6206 15.283 23.4451 15.202 23.2717L15.6428 22.5307C18.264 22.429 20.9645 21.9641 22.4224 21.1209V24.0625C22.4219 24.3824 20.7829 25.2673 16.9531 25.5877ZM15.5405 21.4397L13.09 18.9891L11.7288 19.798C11.5555 19.7176 11.3805 19.6443 11.206 19.5792L10.8155 18.0469H6.68391L6.29398 19.5792C6.20102 19.6142 6.10805 19.6569 6.01508 19.6962V16.7027C7.91383 17.7346 11.8453 18.0469 14.2188 18.0469C16.5922 18.0469 20.5237 17.7346 22.4219 16.7021V19.6875C22.4219 20.1469 20.078 21.2762 15.5405 21.4397ZM33.3594 33.3594H26.7969V23.5156H33.3594V33.3594ZM31.1719 17.5C31.1719 18.1032 30.6813 18.5938 30.0781 18.5938C29.4749 18.5938 28.9844 18.1032 28.9844 17.5C28.9844 16.8968 29.4749 16.4062 30.0781 16.4062C30.6813 16.4062 31.1719 16.8968 31.1719 17.5ZM26.7969 1.64062H33.3594V11.4844H26.7969V1.64062Z" fill="white"/>
<path d="M8.75 21.3281C6.03641 21.3281 3.82812 23.5359 3.82812 26.25C3.82812 28.9641 6.03641 31.1719 8.75 31.1719C11.4636 31.1719 13.6719 28.9641 13.6719 26.25C13.6719 23.5359 11.4636 21.3281 8.75 21.3281ZM8.75 30.0781C6.63906 30.0781 4.92188 28.3604 4.92188 26.25C4.92188 24.1396 6.63906 22.4219 8.75 22.4219C10.8609 22.4219 12.5781 24.1396 12.5781 26.25C12.5781 28.3604 10.8609 30.0781 8.75 30.0781Z" fill="white"/>
<path d="M8.75 23.5156C7.24227 23.5156 6.01562 24.7423 6.01562 26.25C6.01562 27.7577 7.24227 28.9844 8.75 28.9844C10.2577 28.9844 11.4844 27.7577 11.4844 26.25C11.4844 24.7423 10.2577 23.5156 8.75 23.5156ZM8.75 27.8906C7.84547 27.8906 7.10938 27.1545 7.10938 26.25C7.10938 25.3455 7.84547 24.6094 8.75 24.6094C9.65453 24.6094 10.3906 25.3455 10.3906 26.25C10.3906 27.1545 9.65453 27.8906 8.75 27.8906Z" fill="white"/>
<path d="M27.8906 24.6094H32.2656V25.7031H27.8906V24.6094Z" fill="white"/>
<path d="M32.2656 28.9844H27.8906V32.2656H32.2656V28.9844ZM31.1719 31.1719H28.9844V30.0781H31.1719V31.1719Z" fill="white"/>
<path d="M27.8906 2.73438H32.2656V3.82812H27.8906V2.73438Z" fill="white"/>
<path d="M27.8906 4.92188H32.2656V6.01562H27.8906V4.92188Z" fill="white"/>
<path d="M27.8906 7.10938H32.2656V8.20312H27.8906V7.10938Z" fill="white"/>
<path d="M27.8906 9.29688H32.2656V10.3906H27.8906V9.29688Z" fill="white"/>
<path d="M27.8906 26.7969H32.2656V27.8906H27.8906V26.7969Z" fill="white"/>
<path d="M19.1406 10.3906H20.2344V11.4844H19.1406V10.3906Z" fill="white"/>
<path d="M16.9531 10.3906H18.0469V11.4844H16.9531V10.3906Z" fill="white"/>
<path d="M14.7656 10.3906H15.8594V11.4844H14.7656V10.3906Z" fill="white"/>
<path d="M8.20312 10.3906H9.29688V11.4844H8.20312V10.3906Z" fill="white"/>
<path d="M12.5781 10.3906H13.6719V11.4844H12.5781V10.3906Z" fill="white"/>
<path d="M10.3906 10.3906H11.4844V11.4844H10.3906V10.3906Z" fill="white"/>
</g>
<defs>
<clipPath id="clip0_28_109">
<rect width="35" height="35" fill="white"/>
</clipPath>
</defs>
</svg>
