<svg width="35" height="35" viewBox="0 0 35 35" fill="none" xmlns="http://www.w3.org/2000/svg">
<path d="M34.691 20.5944L34.7016 20.5897L28.4169 6.53263C27.8301 5.22163 26.5241 4.375 25.0886 4.375H9.91143C8.47588 4.375 7.16994 5.22163 6.58314 6.53263L0.298389 20.5897L0.308984 20.5944C0.117373 20.9827 0 21.4135 0 21.875V27.7083C0 29.3169 1.30806 30.625 2.91669 30.625H32.0834C33.6919 30.625 35 29.3169 35 27.7083V21.875C35 21.4135 34.8826 20.9827 34.691 20.5944ZM7.91472 7.1279C8.26649 6.34177 9.05051 5.83331 9.91136 5.83331H25.0886C25.9495 5.83331 26.7335 6.34177 27.0852 7.1279L32.3883 18.9891C32.2866 18.9783 32.1877 18.9583 32.0833 18.9583H2.91669C2.8123 18.9583 2.71339 18.9783 2.61174 18.9891L7.91472 7.1279ZM33.5417 27.7083C33.5417 28.5122 32.8873 29.1666 32.0834 29.1666H2.91669C2.11278 29.1666 1.45838 28.5122 1.45838 27.7083V21.875C1.45838 21.0711 2.11278 20.4167 2.91669 20.4167H32.0834C32.8873 20.4167 33.5417 21.0711 33.5417 21.875V27.7083Z" fill="white"/>
<path d="M29.1667 26.2501C29.9721 26.2501 30.6251 25.5972 30.6251 24.7918C30.6251 23.9864 29.9721 23.3335 29.1667 23.3335C28.3613 23.3335 27.7084 23.9864 27.7084 24.7918C27.7084 25.5972 28.3613 26.2501 29.1667 26.2501Z" fill="white"/>
</svg>
