<svg width="35" height="35" viewBox="0 0 35 35" fill="none" xmlns="http://www.w3.org/2000/svg">
<path d="M34.4873 10.6902C34.7706 10.6902 35 10.4606 35 10.1775V3.38379C35 2.72423 34.4633 2.1875 33.8037 2.1875H21.4934C21.2104 2.1875 20.9807 2.41714 20.9807 2.7002C20.9807 2.98325 21.2104 3.21289 21.4934 3.21289H33.8037C33.898 3.21289 33.9746 3.28953 33.9746 3.38379V6.53313H10.9984V3.21289H19.2608C19.5441 3.21289 19.7735 2.98325 19.7735 2.7002C19.7735 2.41714 19.5441 2.1875 19.2608 2.1875H1.19629C0.536728 2.1875 0 2.72423 0 3.38379V31.6194C0 32.279 0.536728 32.8157 1.19629 32.8157H33.8037C34.4633 32.8157 35 32.279 35 31.6194V12.4102C35 12.1271 34.7706 11.8975 34.4873 11.8975C34.204 11.8975 33.9746 12.1271 33.9746 12.4102V31.6194C33.9746 31.7137 33.898 31.7903 33.8037 31.7903H1.19629C1.10203 31.7903 1.02539 31.7137 1.02539 31.6194V7.55825H33.9746V10.1775C33.9746 10.4606 34.204 10.6902 34.4873 10.6902ZM1.02539 3.38379C1.02539 3.28953 1.10203 3.21289 1.19629 3.21289H9.97299V6.53313H1.02539V3.38379Z" fill="white"/>
<path d="M3.69196 4.35498H3.68475C3.68395 4.35498 3.68315 4.35498 3.68235 4.35498C3.40037 4.35498 3.17099 4.58302 3.16965 4.86527C3.16832 5.14832 3.39689 5.37904 3.67994 5.38037H3.68715H3.68982C3.97181 5.38037 4.20092 5.15233 4.20225 4.87008C4.20359 4.58676 3.97528 4.35632 3.69196 4.35498Z" fill="white"/>
<path d="M5.5705 4.36035H5.56329C5.27998 4.36035 5.0506 4.59 5.0506 4.87305C5.0506 5.15636 5.27998 5.38574 5.56329 5.38574H5.5705C5.85355 5.38574 6.0832 5.15636 6.0832 4.87305C6.0832 4.59 5.85355 4.36035 5.5705 4.36035Z" fill="white"/>
<path d="M7.45359 4.36597H7.44638C7.44558 4.36597 7.44478 4.36597 7.44398 4.36597C7.16199 4.36597 6.93262 4.59374 6.93128 4.87626C6.92995 5.15931 7.15852 5.39002 7.44157 5.39136H7.44878H7.45119C7.73317 5.39136 7.96255 5.16332 7.96388 4.88107C7.96522 4.59775 7.73664 4.3673 7.45359 4.36597Z" fill="white"/>
<path d="M4.58008 29.9417H10.3223C10.9818 29.9417 11.5186 29.4049 11.5186 28.7454V23.0032C11.5186 22.3436 10.9818 21.8069 10.3223 21.8069H4.58008C3.92052 21.8069 3.38379 22.3436 3.38379 23.0032V28.7454C3.38379 29.4049 3.92052 29.9417 4.58008 29.9417ZM4.40918 23.0032C4.40918 22.9089 4.48582 22.8323 4.58008 22.8323H10.3223C10.4165 22.8323 10.4932 22.9089 10.4932 23.0032V28.7454C10.4932 28.8396 10.4165 28.9163 10.3223 28.9163H4.58008C4.48582 28.9163 4.40918 28.8396 4.40918 28.7454V23.0032Z" fill="white"/>
<path d="M5.67383 24.6775H6.69922C6.98227 24.6775 7.21191 24.4478 7.21191 24.1648C7.21191 23.8815 6.98227 23.6521 6.69922 23.6521H5.67383C5.39078 23.6521 5.16113 23.8815 5.16113 24.1648C5.16113 24.4478 5.39078 24.6775 5.67383 24.6775Z" fill="white"/>
<path d="M14.6289 29.9417H20.3711C21.0307 29.9417 21.5674 29.4049 21.5674 28.7454V23.0032C21.5674 22.3436 21.0307 21.8069 20.3711 21.8069H14.6289C13.9693 21.8069 13.4326 22.3436 13.4326 23.0032V28.7454C13.4326 29.4049 13.9693 29.9417 14.6289 29.9417ZM14.458 23.0032C14.458 22.9089 14.5346 22.8323 14.6289 22.8323H20.3711C20.4654 22.8323 20.542 22.9089 20.542 23.0032V28.7454C20.542 28.8396 20.4654 28.9163 20.3711 28.9163H14.6289C14.5346 28.9163 14.458 28.8396 14.458 28.7454V23.0032Z" fill="white"/>
<path d="M15.7227 24.6775H16.748C17.0311 24.6775 17.2607 24.4478 17.2607 24.1648C17.2607 23.8815 17.0311 23.6521 16.748 23.6521H15.7227C15.4396 23.6521 15.21 23.8815 15.21 24.1648C15.21 24.4478 15.4396 24.6775 15.7227 24.6775Z" fill="white"/>
<path d="M24.6777 29.9417H30.4199C31.0795 29.9417 31.6162 29.4049 31.6162 28.7454V23.0032C31.6162 22.3436 31.0795 21.8069 30.4199 21.8069H24.6777C24.0182 21.8069 23.4814 22.3436 23.4814 23.0032V28.7454C23.4814 29.4049 24.0182 29.9417 24.6777 29.9417ZM24.5068 23.0032C24.5068 22.9089 24.5835 22.8323 24.6777 22.8323H30.4199C30.5142 22.8323 30.5908 22.9089 30.5908 23.0032V28.7454C30.5908 28.8396 30.5142 28.9163 30.4199 28.9163H24.6777C24.5835 28.9163 24.5068 28.8396 24.5068 28.7454V23.0032Z" fill="white"/>
<path d="M25.7715 24.6775H26.7969C27.0802 24.6775 27.3096 24.4478 27.3096 24.1648C27.3096 23.8815 27.0802 23.6521 26.7969 23.6521H25.7715C25.4882 23.6521 25.2588 23.8815 25.2588 24.1648C25.2588 24.4478 25.4882 24.6775 25.7715 24.6775Z" fill="white"/>
<path d="M21.0889 19.1865V13.4443C21.0889 12.7848 20.5521 12.248 19.8926 12.248H9.8045C9.52145 12.248 9.2918 12.4777 9.2918 12.7607C9.2918 13.0441 9.52145 13.2734 9.8045 13.2734H19.8926C19.9868 13.2734 20.0635 13.3503 20.0635 13.4443V19.1865C20.0635 19.2808 19.9868 19.3574 19.8926 19.3574H4.58008C4.48582 19.3574 4.40918 19.2808 4.40918 19.1865V13.4443C4.40918 13.3503 4.48582 13.2734 4.58008 13.2734H7.57187C7.85519 13.2734 8.08456 13.0441 8.08456 12.7607C8.08456 12.4777 7.85519 12.248 7.57187 12.248H4.58008C3.92052 12.248 3.38379 12.7848 3.38379 13.4443V19.1865C3.38379 19.8461 3.92052 20.3828 4.58008 20.3828H19.8926C20.5521 20.3828 21.0889 19.8464 21.0889 19.1865Z" fill="white"/>
<path d="M13.125 15.5073H17.8191C18.1021 15.5073 18.3318 15.2777 18.3318 14.9946C18.3318 14.7113 18.1021 14.4819 17.8191 14.4819H13.125C12.8419 14.4819 12.6123 14.7113 12.6123 14.9946C12.6123 15.2777 12.8419 15.5073 13.125 15.5073Z" fill="white"/>
<path d="M13.125 17.0112H14.1961C14.4791 17.0112 14.7087 16.7816 14.7087 16.4985C14.7087 16.2152 14.4791 15.9858 14.1961 15.9858H13.125C12.8419 15.9858 12.6123 16.2152 12.6123 16.4985C12.6123 16.7816 12.8419 17.0112 13.125 17.0112Z" fill="white"/>
<path d="M13.125 18.2644H14.1961C14.4791 18.2644 14.7087 18.0348 14.7087 17.7517C14.7087 17.4684 14.4791 17.239 14.1961 17.239H13.125C12.8419 17.239 12.6123 17.4684 12.6123 17.7517C12.6123 18.0348 12.8419 18.2644 13.125 18.2644Z" fill="white"/>
<path d="M31.1035 12.9309H23.4473C23.1639 12.9309 22.9346 13.1603 22.9346 13.4436C22.9346 13.7267 23.1639 13.9563 23.4473 13.9563H31.1035C31.3868 13.9563 31.6162 13.7267 31.6162 13.4436C31.6162 13.1603 31.3868 12.9309 31.1035 12.9309Z" fill="white"/>
<path d="M28.1414 15.3013H23.4473C23.1639 15.3013 22.9346 15.5309 22.9346 15.814C22.9346 16.097 23.1639 16.3267 23.4473 16.3267H28.1414C28.4244 16.3267 28.6541 16.097 28.6541 15.814C28.6541 15.5309 28.4244 15.3013 28.1414 15.3013Z" fill="white"/>
<path d="M28.1414 16.988H23.4473C23.1639 16.988 22.9346 17.2177 22.9346 17.5007C22.9346 17.7838 23.1639 18.0134 23.4473 18.0134H28.1414C28.4244 18.0134 28.6541 17.7838 28.6541 17.5007C28.6541 17.2177 28.4244 16.988 28.1414 16.988Z" fill="white"/>
<path d="M23.4473 19.7002H28.1414C28.4244 19.7002 28.6541 19.4706 28.6541 19.1875C28.6541 18.9044 28.4244 18.6748 28.1414 18.6748H23.4473C23.1639 18.6748 22.9346 18.9044 22.9346 19.1875C22.9346 19.4706 23.1639 19.7002 23.4473 19.7002Z" fill="white"/>
<path d="M3.87378 10.1523H14.6062C14.8893 10.1523 15.1189 9.92297 15.1189 9.63965C15.1189 9.3566 14.8893 9.12695 14.6062 9.12695H3.87378C3.59046 9.12695 3.36108 9.3566 3.36108 9.63965C3.36108 9.92297 3.59046 10.1523 3.87378 10.1523Z" fill="white"/>
<path d="M20.7356 10.1523C21.0189 10.1523 21.2483 9.92297 21.2483 9.63965C21.2483 9.3566 21.0189 9.12695 20.7356 9.12695H19.2317C18.9486 9.12695 18.719 9.3566 18.719 9.63965C18.719 9.92297 18.9486 10.1523 19.2317 10.1523H20.7356Z" fill="white"/>
<path d="M24.7119 9.63965C24.7119 9.3566 24.4825 9.12695 24.1992 9.12695H22.6953C22.412 9.12695 22.1826 9.3566 22.1826 9.63965C22.1826 9.92297 22.412 10.1523 22.6953 10.1523H24.1992C24.4825 10.1523 24.7119 9.92297 24.7119 9.63965Z" fill="white"/>
<path d="M27.6628 10.1523C27.9459 10.1523 28.1755 9.92297 28.1755 9.63965C28.1755 9.3566 27.9459 9.12695 27.6628 9.12695H26.1589C25.8756 9.12695 25.6462 9.3566 25.6462 9.63965C25.6462 9.92297 25.8756 10.1523 26.1589 10.1523H27.6628Z" fill="white"/>
<path d="M31.1262 9.12695H29.6223C29.3393 9.12695 29.1096 9.3566 29.1096 9.63965C29.1096 9.92297 29.3393 10.1523 29.6223 10.1523H31.1262C31.4095 10.1523 31.6389 9.92297 31.6389 9.63965C31.6389 9.3566 31.4095 9.12695 31.1262 9.12695Z" fill="white"/>
</svg>
