<svg class="main-5-ico" width="40" height="40" viewBox="0 0 40 40" fill="" xmlns="http://www.w3.org/2000/svg">
<path d="M38.7275 19.8337L33.9806 2.625C33.8704 2.23012 33.6342 1.88208 33.3079 1.63386C32.9816 1.38564 32.5831 1.25085 32.1731 1.25H7.82688C7.4169 1.25085 7.01844 1.38564 6.69214 1.63386C6.36585 1.88208 6.1296 2.23012 6.01938 2.625L1.26938 19.8325C1.25538 19.8872 1.24887 19.9435 1.25 20V35.625C1.251 36.4535 1.58056 37.2478 2.16639 37.8336C2.75223 38.4194 3.54651 38.749 4.375 38.75H35.625C36.4535 38.749 37.2478 38.4194 37.8336 37.8336C38.4195 37.2478 38.749 36.4535 38.75 35.625V20C38.75 19.9438 38.7424 19.8879 38.7275 19.8337ZM7.2275 2.95875C7.26375 2.8274 7.34192 2.7115 7.45012 2.62868C7.55832 2.54586 7.69062 2.50068 7.82688 2.5H32.1731C32.3099 2.5 32.4429 2.54487 32.5518 2.62774C32.6606 2.7106 32.7392 2.82689 32.7756 2.95875L37.3044 19.375H2.69563L7.2275 2.95875ZM35.625 37.5H4.375C3.87772 37.5 3.40081 37.3025 3.04918 36.9508C2.69755 36.5992 2.5 36.1223 2.5 35.625V20.625H37.5V35.625C37.5 36.1223 37.3025 36.5992 36.9508 36.9508C36.5992 37.3025 36.1223 37.5 35.625 37.5Z"/>
<path d="M4.66123 17.8788C4.71984 17.9557 4.7955 18.018 4.88226 18.0607C4.96903 18.1034 5.06452 18.1254 5.16123 18.125H34.8419C34.9381 18.125 35.0331 18.1028 35.1193 18.06C35.2056 18.0173 35.2808 17.9552 35.3391 17.8786C35.3974 17.802 35.4373 17.713 35.4555 17.6185C35.4738 17.524 35.47 17.4265 35.4444 17.3337L31.8237 4.20875C31.7873 4.07689 31.7087 3.9606 31.5999 3.87774C31.491 3.79487 31.358 3.75 31.2212 3.75H8.77873C8.64194 3.75 8.50893 3.79487 8.40009 3.87774C8.29126 3.9606 8.21262 4.07689 8.17623 4.20875L4.55561 17.3337C4.53004 17.4266 4.52627 17.5241 4.54459 17.6186C4.56291 17.7132 4.60283 17.8022 4.66123 17.8788ZM5.97873 16.875L6.84061 13.75H33.1594L34.0212 16.875H5.97873ZM8.04748 9.375H31.9525L32.8125 12.5H7.18748L8.04748 9.375ZM9.25498 5H30.745L31.6075 8.125H8.39248L9.25498 5Z"/>
<path d="M24.7581 23.125H15.2419C15.0437 23.1248 14.8483 23.1716 14.6718 23.2618C14.4953 23.3519 14.3428 23.4827 14.2268 23.6434C14.1108 23.804 14.0347 23.99 14.0047 24.1859C13.9747 24.3818 13.9918 24.582 14.0544 24.77L14.75 26.8431C14.8743 27.2159 15.1126 27.5402 15.4312 27.7703C15.7498 28.0003 16.1327 28.1244 16.5256 28.125H23.4744C23.868 28.125 24.2515 28.0011 24.5708 27.7709C24.89 27.5407 25.1288 27.2159 25.2531 26.8425L25.9406 24.7706C26.0032 24.583 26.0204 24.3831 25.9908 24.1876C25.9611 23.992 25.8854 23.8062 25.77 23.6456C25.6546 23.4849 25.5026 23.354 25.3267 23.2635C25.1508 23.173 24.9559 23.1255 24.7581 23.125ZM24.0669 26.4475C24.0254 26.5719 23.9459 26.6801 23.8396 26.7569C23.7333 26.8336 23.6055 26.8749 23.4744 26.875H16.5256C16.3945 26.8749 16.2667 26.8336 16.1604 26.7569C16.0541 26.6801 15.9746 26.5719 15.9331 26.4475L15.2419 24.375H24.7575L24.0669 26.4475Z"/>
</svg>
