<svg width="40" height="40" viewBox="0 0 40 40" fill="" xmlns="http://www.w3.org/2000/svg">
<g clip-path="url(#clip0_35_103)">
<path d="M3.87097 36.1289H5.16129V37.4192H3.87097V36.1289Z"/>
<path d="M6.4516 36.1289H7.74192V37.4192H6.4516V36.1289Z"/>
<path d="M9.03226 36.1289H10.3226V37.4192H9.03226V36.1289Z"/>
<path d="M30.9677 36.1289H36.129V37.4192H30.9677V36.1289Z"/>
<path d="M38.7097 33.5484V12.2581C38.7097 10.4795 37.2625 9.03226 35.4839 9.03226H33.5484C33.5484 4.05147 29.4969 0 24.5161 0C19.5353 0 15.4839 4.05147 15.4839 9.03226H4.51613C2.73753 9.03226 1.29032 10.4795 1.29032 12.2581V33.5484H0V36.7742C0 38.5528 1.4472 40 3.22581 40H36.7742C38.5528 40 40 38.5528 40 36.7742V33.5484H38.7097ZM35.4839 10.3226C36.5508 10.3226 37.4194 11.1911 37.4194 12.2581V33.5484H36.129V12.9032C36.129 12.1916 35.5503 11.6129 34.8387 11.6129H33.1678C33.2923 11.1949 33.3821 10.7633 33.4451 10.3226H35.4839ZM17.1491 6.66142L23.9967 9.51487L26.3414 16.5477C25.7548 16.6904 25.1459 16.7742 24.5161 16.7742C20.247 16.7742 16.7742 13.3014 16.7742 9.03226C16.7742 8.20502 16.9078 7.40896 17.1491 6.66142ZM27.5671 16.1451L25.2542 9.20646L30.4218 4.03856C31.565 5.38779 32.2581 7.12954 32.2581 9.03226C32.2581 12.2181 30.3226 14.9587 27.5671 16.1451ZM24.5161 1.29032C26.4188 1.29032 28.1606 1.98337 29.5105 3.12594L24.3659 8.27022L17.649 5.47222C18.94 2.99112 21.531 1.29032 24.5161 1.29032ZM2.58065 12.2581C2.58065 11.1911 3.44916 10.3226 4.51613 10.3226H15.5872C15.6502 10.7633 15.7394 11.1949 15.8644 11.6129H5.16129C4.44966 11.6129 3.87097 12.1916 3.87097 12.9032V33.5484H2.58065V12.2581ZM38.7097 36.7742C38.7097 37.8412 37.8412 38.7097 36.7742 38.7097H3.22581C2.15883 38.7097 1.29032 37.8412 1.29032 36.7742V34.8387H14.582C15.5097 35.6729 16.6967 36.129 17.9543 36.129H22.0464C23.3039 36.129 24.4909 35.6729 25.4187 34.8387H33.5484V33.5484H24.8942L24.7051 33.7374C23.9948 34.4478 23.051 34.8387 22.0457 34.8387H17.9536C16.949 34.8387 16.0046 34.4478 15.2942 33.7374L15.1058 33.5484H5.16129V12.9032H16.3678C17.8213 15.9498 20.9221 18.0645 24.5161 18.0645C28.1102 18.0645 31.2109 15.9498 32.6644 12.9032H34.8387V34.8387H38.7097V36.7742Z"/>
<path d="M31.6129 27.0966C31.2169 27.0966 30.8483 27.2172 30.5412 27.4223L28.2904 25.7347C28.3477 25.552 28.3871 25.3617 28.3871 25.1611C28.3871 24.0941 27.5186 23.2256 26.4516 23.2256C25.3846 23.2256 24.5161 24.0941 24.5161 25.1611C24.5161 25.3832 24.5612 25.5933 24.6302 25.7921L21.0169 28.683C20.7208 28.4984 20.3742 28.3869 20 28.3869C19.5659 28.3869 19.169 28.5359 18.8458 28.7778L16.0638 26.923C16.1026 26.7715 16.129 26.6152 16.129 26.4514C16.129 25.3844 15.2605 24.5159 14.1935 24.5159C13.1266 24.5159 12.2581 25.3844 12.2581 26.4514C12.2581 26.6152 12.2845 26.7715 12.3233 26.923L9.54132 28.7778C9.21811 28.5353 8.82118 28.3869 8.38708 28.3869C7.32011 28.3869 6.4516 29.2554 6.4516 30.3224C6.4516 31.3893 7.32011 32.2578 8.38708 32.2578C9.45406 32.2578 10.3226 31.3893 10.3226 30.3224C10.3226 30.1586 10.2961 30.0023 10.2574 29.8508L13.0393 27.9959C13.3625 28.2385 13.7594 28.3869 14.1935 28.3869C14.6276 28.3869 15.0246 28.2385 15.3478 27.9959L18.1297 29.8508C18.091 30.0023 18.0645 30.1592 18.0645 30.3224C18.0645 31.3893 18.933 32.2578 20 32.2578C21.067 32.2578 21.9355 31.3893 21.9355 30.3224C21.9355 30.1003 21.8904 29.8902 21.8214 29.6914L25.4347 26.8004C25.7308 26.985 26.0774 27.0966 26.4516 27.0966C26.8476 27.0966 27.2162 26.9759 27.5233 26.7708L29.7741 28.4584C29.7168 28.6411 29.6774 28.8314 29.6774 29.032C29.6774 30.099 30.5459 30.9675 31.6129 30.9675C32.6799 30.9675 33.5484 30.099 33.5484 29.032C33.5484 27.9651 32.6799 27.0966 31.6129 27.0966ZM8.38708 30.9675C8.03174 30.9675 7.74192 30.6777 7.74192 30.3224C7.74192 29.967 8.03174 29.6772 8.38708 29.6772C8.74243 29.6772 9.03224 29.967 9.03224 30.3224C9.03224 30.6777 8.74243 30.9675 8.38708 30.9675ZM14.1935 27.0966C13.8382 27.0966 13.5484 26.8067 13.5484 26.4514C13.5484 26.096 13.8382 25.8062 14.1935 25.8062C14.5489 25.8062 14.8387 26.096 14.8387 26.4514C14.8387 26.8067 14.5489 27.0966 14.1935 27.0966ZM20 30.9675C19.6446 30.9675 19.3548 30.6777 19.3548 30.3224C19.3548 29.967 19.6446 29.6772 20 29.6772C20.3553 29.6772 20.6451 29.967 20.6451 30.3224C20.6451 30.6777 20.3553 30.9675 20 30.9675ZM26.4516 25.8062C26.0963 25.8062 25.8064 25.5164 25.8064 25.1611C25.8064 24.8057 26.0963 24.5159 26.4516 24.5159C26.8069 24.5159 27.0968 24.8057 27.0968 25.1611C27.0968 25.5164 26.8069 25.8062 26.4516 25.8062ZM31.6129 29.6772C31.2575 29.6772 30.9677 29.3874 30.9677 29.032C30.9677 28.6767 31.2575 28.3869 31.6129 28.3869C31.9682 28.3869 32.258 28.6767 32.258 29.032C32.258 29.3874 31.9682 29.6772 31.6129 29.6772Z"/>
<path d="M16.7742 14.1934H6.4516V23.2256H16.7742V14.1934ZM15.4839 21.9353H7.74192V15.4837H15.4839V21.9353Z"/>
<path d="M9.03226 16.7744H14.1935V18.0647H9.03226V16.7744Z"/>
<path d="M9.03226 19.355H14.1935V20.6453H9.03226V19.355Z"/>
<path d="M18.0645 20.645H19.3548V21.9353H18.0645V20.645Z"/>
<path d="M20.6452 20.645H33.5484V21.9353H20.6452V20.645Z"/>
</g>
<defs>
<clipPath id="clip0_35_103">
<rect width="40" height="40"/>
</clipPath>
</defs>
</svg>
