<svg class="main-5-ico" width="40" height="40" viewBox="0 0 40 40" fill="" xmlns="http://www.w3.org/2000/svg">
<g clip-path="url(#clip0_35_157)">
<path d="M19.8717 1.31406C23.1541 1.31406 26.4398 2.24458 29.3743 4.00521C31.4971 5.28085 33.3697 6.93189 34.9013 8.87802L29.2011 8.6898C28.9822 8.68095 28.7753 8.79021 28.6593 8.9757C28.5432 9.16153 28.5354 9.39501 28.6392 9.58799C28.7426 9.78097 28.9421 9.90349 29.1609 9.90894L35.8801 10.1305C36.1174 10.2598 36.4118 10.217 36.6027 10.0257C36.7936 9.8344 36.8362 9.54034 36.7068 9.30277L36.4849 2.58459C36.4717 2.25002 36.1905 1.98897 35.8556 1.99986C35.5207 2.01075 35.2576 2.28984 35.2661 2.62475L35.4299 7.59115C33.8877 5.75904 32.0539 4.19411 30.0023 2.95931C26.8779 1.085 23.375 0.0942383 19.8717 0.0942383C14.2743 0.0942383 9.11426 2.4025 5.34215 6.59324C3.65775 8.47334 2.31813 10.6359 1.38523 12.9816C0.479214 15.2718 0 17.6866 0 19.9667C0 20.3033 0.272961 20.5766 0.609909 20.5766C0.946856 20.5766 1.21982 20.3033 1.21982 19.9667C1.21982 15.603 3.09992 10.9089 6.24918 7.4094C9.78645 3.47869 14.6242 1.31406 19.8717 1.31406Z"/>
<path d="M39.3905 19.3564C39.0539 19.3564 38.7806 19.6294 38.7806 19.9664C38.7806 24.33 36.9005 29.0241 33.7512 32.5233C30.214 36.454 25.3755 38.6186 20.1284 38.6186C16.8464 38.6186 13.5603 37.6881 10.6258 35.9275C8.50333 34.6518 6.63037 33.0008 5.09914 31.0546L10.7993 31.2429C11.1363 31.2538 11.4181 30.99 11.4293 30.6534C11.4402 30.3168 11.1764 30.0346 10.8395 30.0237L4.12063 29.8022C3.88306 29.6728 3.589 29.7157 3.39772 29.907C3.20678 30.0983 3.16424 30.3923 3.29391 30.6299L3.51514 37.3481C3.52059 37.5669 3.64311 37.766 3.83609 37.8698C4.02907 37.9733 4.26255 37.9658 4.44838 37.8494C4.63388 37.7334 4.74313 37.5264 4.73428 37.3079L4.57057 32.3415C6.11236 34.1736 7.94617 35.7386 9.99815 36.9733C13.1219 38.8477 16.6251 39.8384 20.128 39.8384C25.7258 39.8384 30.8858 37.5305 34.6576 33.3394C36.3423 31.4593 37.682 29.2967 38.6145 26.9514C39.5209 24.6612 40.0001 22.2464 40.0001 19.9664C40.0001 19.6297 39.7271 19.3568 39.3905 19.3564Z"/>
<path d="M24.9239 10.2561H20.9942C20.9884 10.2561 20.9826 10.2533 20.9786 10.2489L19.2594 8.36881C18.6652 7.71976 17.8262 7.35014 16.9464 7.34912H11.2843C9.55434 7.35116 8.15243 8.75307 8.15039 10.4831V25.2836C8.15243 27.0136 9.55434 28.4155 11.2843 28.4175H28.0191C29.7491 28.4155 31.1506 27.0136 31.1527 25.2836V16.4276C31.151 14.7119 29.7715 13.3162 28.0562 13.294C28.0024 11.6021 26.6165 10.2578 24.9239 10.2561ZM13.4639 25.2836C13.4629 26.3404 12.6066 27.1967 11.5502 27.1977H11.2843C10.2276 27.1967 9.37157 26.3404 9.37021 25.2836V10.4831C9.37157 9.42628 10.2276 8.56996 11.2843 8.56894H16.9464C17.4838 8.56962 17.9964 8.79527 18.3596 9.19178L20.0787 11.0722C20.3139 11.3288 20.646 11.4755 20.9946 11.4759H24.9239C25.9433 11.4769 26.7832 12.2757 26.8357 13.2937H16.5979C14.8679 13.2957 13.466 14.6976 13.4639 16.4276V25.2836ZM29.9328 16.4276V25.2836C29.9318 26.3404 29.0755 27.1967 28.0191 27.1977H14.03C14.4544 26.6501 14.6841 25.9765 14.6834 25.2836V16.4276C14.6844 15.3709 15.5408 14.5145 16.5976 14.5135H28.0191C29.0755 14.5145 29.9318 15.3709 29.9328 16.4276Z"/>
</g>
<defs>
<clipPath id="clip0_35_157">
<rect width="40" height="40"/>
</clipPath>
</defs>
</svg>
