<svg width="40" height="40" viewBox="0 0 40 40" fill="none" xmlns="http://www.w3.org/2000/svg">
<g clip-path="url(#clip0_23_212)">
<path d="M39.3862 16.894L36.0209 16.1552C35.6221 14.4611 34.9589 12.8558 34.0441 11.3708L35.5854 8.80212C35.7698 8.4947 35.7213 8.10118 35.4679 7.84775L32.1531 4.53292C31.8996 4.2794 31.506 4.23104 31.1986 4.41549L28.63 5.95682C27.145 5.04198 25.5396 4.3787 23.8455 3.98003L23.1067 0.614725C23.0281 0.256366 22.7105 0.000976562 22.3437 0.000976562H17.6562C17.2893 0.000976562 16.9717 0.256366 16.8931 0.614646L16.1542 3.97995C14.4601 4.37862 12.8548 5.04182 11.3698 5.95674L8.80114 4.41542C8.49356 4.23089 8.10013 4.2794 7.84669 4.53284L4.53186 7.84767C4.27842 8.10118 4.22998 8.49462 4.41436 8.80204L5.95568 11.3707C5.04115 12.8552 4.37764 14.4607 3.97834 16.1551L0.613591 16.894C0.25539 16.9728 0 17.2903 0 17.6572V22.3447C0 22.7115 0.255233 23.0289 0.613513 23.1077L4.01272 23.8551C4.42084 25.5359 5.08365 27.1201 5.98834 28.5767L4.41444 31.1998C4.23006 31.5072 4.2785 31.9006 4.53194 32.1542L7.84677 35.469C8.1002 35.7225 8.49372 35.7709 8.80114 35.5865L11.466 33.9877C12.9201 34.8702 14.4841 35.5127 16.1281 35.9029C16.354 36.9148 16.8585 39.2053 16.8895 39.3661C16.9599 39.7344 17.2819 40.0009 17.657 40.0009H22.3437C22.7103 40.0009 23.0276 39.7459 23.1066 39.3879L23.8751 35.9021C25.5179 35.5118 27.0808 34.8696 28.534 33.9877L31.1988 35.5865C31.5061 35.7709 31.8997 35.7225 32.1532 35.469L35.468 32.1542C35.7214 31.9006 35.7699 31.5072 35.5855 31.1998L34.0116 28.5766C34.9165 27.1189 35.5794 25.5346 35.9873 23.8551L39.3865 23.1077C39.7448 23.0289 40 22.7115 40 22.3447V17.6572C39.9998 17.2901 39.7445 16.9728 39.3862 16.894ZM38.4374 21.7165L35.1673 22.4355C34.8674 22.5014 34.6339 22.7369 34.5706 23.0374C34.1842 24.8708 33.4678 26.5843 32.4412 28.1304C32.2745 28.3814 32.2671 28.706 32.4221 28.9645L33.9317 31.4805L31.4795 33.9327L28.9268 32.4011C28.6711 32.2477 28.3503 32.2532 28.1 32.4154C26.5507 33.4194 24.856 34.1145 23.0627 34.4814C22.7605 34.5433 22.5229 34.7773 22.4564 35.0786L21.7159 38.4383H18.2877C18.048 37.3402 17.5767 35.2098 17.538 35.056C17.4647 34.765 17.231 34.5417 16.937 34.4815C15.1438 34.1145 13.4491 33.4195 11.8998 32.4155C11.6496 32.2533 11.3287 32.2478 11.073 32.4012L8.52028 33.9327L6.0681 31.4805L7.5777 28.9645C7.73278 28.706 7.72536 28.3813 7.55849 28.1302C6.5324 26.5859 5.81599 24.8725 5.42928 23.0374C5.36592 22.7369 5.13248 22.5014 4.83256 22.4355L1.56249 21.7165V18.2854L4.80193 17.5741C5.10396 17.5078 5.33849 17.2696 5.39998 16.9665C5.77443 15.1219 6.48997 13.3878 7.52685 11.8124C7.69184 11.5616 7.69856 11.2384 7.54419 10.9809L6.0681 8.52118L8.52028 6.06908L10.98 7.54509C11.2375 7.69955 11.5606 7.6929 11.8116 7.52775C13.3874 6.49064 15.1213 5.77533 16.9652 5.40182C17.2684 5.34041 17.5069 5.1058 17.5732 4.8037L18.2845 1.56339H21.7153L22.4266 4.80362C22.493 5.1058 22.7314 5.34033 23.0346 5.40174C24.8786 5.77525 26.6125 6.49057 28.1882 7.52767C28.4391 7.69275 28.7623 7.69947 29.0198 7.54501L31.4796 6.069L33.9317 8.5211L32.4557 10.9809C32.3012 11.2384 32.3079 11.5616 32.473 11.8123C33.5101 13.3881 34.2254 15.1221 34.599 16.9661C34.6604 17.2693 34.895 17.5077 35.1971 17.574L38.4374 18.2854V21.7165Z" fill="#3BB667"/>
<path d="M19.9218 8.35938C13.4601 8.35938 8.20309 13.6164 8.20309 20.0781C8.20309 26.5142 13.4168 31.7968 19.9218 31.7968C26.4293 31.7968 31.6405 26.508 31.6405 20.0781C31.6405 13.6163 26.3835 8.35938 19.9218 8.35938ZM21.4844 25.8882V30.114C20.4543 30.2719 19.3893 30.2719 18.3593 30.1139V25.8717C18.3593 25.5538 18.1666 25.2674 17.872 25.1478C15.7951 24.3048 14.4531 22.3148 14.4531 20.0781C14.4531 18.2553 15.3437 16.5966 16.7968 15.589V18.5156C16.7968 18.6846 16.8517 18.8491 16.9531 18.9843C17.6606 19.9277 18.7426 20.4687 19.9218 20.4687C21.101 20.4687 22.183 19.9277 22.8905 18.9843C22.9919 18.8491 23.0468 18.6846 23.0468 18.5156V15.5961C24.7365 16.7829 25.8826 18.9848 25.1895 21.5832C24.7594 23.1973 23.5586 24.5352 21.9777 25.162C21.6798 25.2801 21.4844 25.568 21.4844 25.8882ZM23.0468 29.7436V26.3964C24.8408 25.5188 26.1881 23.9035 26.6993 21.9857C27.666 18.3619 25.763 14.8608 22.5594 13.5604C22.3185 13.4626 22.0448 13.4911 21.8292 13.6363C21.6136 13.7815 21.4843 14.0244 21.4843 14.2843V18.2329C21.0801 18.6634 20.5227 18.9061 19.9218 18.9061C19.3209 18.9061 18.7635 18.6634 18.3593 18.2329V14.2843C18.3593 14.0244 18.2301 13.7815 18.0145 13.6363C17.7989 13.4911 17.5252 13.4626 17.2844 13.5603C14.6153 14.6429 12.8906 17.2013 12.8906 20.0781C12.8906 22.7749 14.4071 25.1924 16.7968 26.3764V29.7436C12.6698 28.4054 9.76559 24.4871 9.76559 20.0781C9.76559 14.4779 14.3216 9.92187 19.9218 9.92187C25.522 9.92187 30.078 14.4779 30.078 20.0781C30.078 24.487 27.1738 28.4053 23.0468 29.7436Z" fill="#3BB667"/>
</g>
<defs>
<clipPath id="clip0_23_212">
<rect width="40" height="40" fill="white"/>
</clipPath>
</defs>
</svg>
