<svg width="40" height="40" viewBox="0 0 40 40" fill="none" xmlns="http://www.w3.org/2000/svg">
<path d="M5 31.25H3.125C2.95924 31.25 2.80027 31.3158 2.68306 31.4331C2.56585 31.5503 2.5 31.7092 2.5 31.875C2.5 32.0408 2.56585 32.1997 2.68306 32.3169C2.80027 32.4342 2.95924 32.5 3.125 32.5H5C5.16576 32.5 5.32473 32.4342 5.44194 32.3169C5.55915 32.1997 5.625 32.0408 5.625 31.875C5.625 31.7092 5.55915 31.5503 5.44194 31.4331C5.32473 31.3158 5.16576 31.25 5 31.25Z" fill="#3BB667"/>
<path d="M7.5 31.25H6.875C6.70924 31.25 6.55027 31.3158 6.43306 31.4331C6.31585 31.5503 6.25 31.7092 6.25 31.875C6.25 32.0408 6.31585 32.1997 6.43306 32.3169C6.55027 32.4342 6.70924 32.5 6.875 32.5H7.5C7.66576 32.5 7.82473 32.4342 7.94194 32.3169C8.05915 32.1997 8.125 32.0408 8.125 31.875C8.125 31.7092 8.05915 31.5503 7.94194 31.4331C7.82473 31.3158 7.66576 31.25 7.5 31.25Z" fill="#3BB667"/>
<path d="M36.875 13.125H35.625V8.125C35.6241 7.46223 35.3605 6.82684 34.8918 6.35819C34.4232 5.88954 33.7878 5.62587 33.125 5.625H6.875C6.21219 5.62574 5.57674 5.88938 5.10806 6.35806C4.63938 6.82674 4.37574 7.46219 4.375 8.125V19.375H3.125C2.46219 19.3757 1.82673 19.6394 1.35806 20.1081C0.889376 20.5767 0.625744 21.2122 0.625 21.875V31.875C0.625744 32.5378 0.889376 33.1733 1.35806 33.6419C1.82673 34.1106 2.46219 34.3743 3.125 34.375H9.375C10.0378 34.3741 10.6732 34.1105 11.1418 33.6418C11.6105 33.1732 11.8741 32.5378 11.875 31.875V30H17.3242L17.0117 31.25H15C14.8342 31.25 14.6753 31.3158 14.5581 31.4331C14.4408 31.5503 14.375 31.7092 14.375 31.875V33.75C14.375 33.9158 14.4408 34.0747 14.5581 34.1919C14.6753 34.3092 14.8342 34.375 15 34.375H36.875C37.5378 34.3741 38.1732 34.1105 38.6418 33.6418C39.1105 33.1732 39.3741 32.5378 39.375 31.875V15.625C39.3741 14.9622 39.1105 14.3268 38.6418 13.8582C38.1732 13.3895 37.5378 13.1259 36.875 13.125ZM10.625 31.875C10.6246 32.2064 10.4927 32.5241 10.2584 32.7584C10.0241 32.9927 9.70639 33.1246 9.375 33.125H3.125C2.79361 33.1246 2.47592 32.9927 2.2416 32.7584C2.00727 32.5241 1.87543 32.2064 1.875 31.875V21.875C1.87543 21.5436 2.00727 21.2259 2.2416 20.9916C2.47592 20.7573 2.79361 20.6254 3.125 20.625H3.92422L4.40703 22.0727C4.44852 22.1971 4.52811 22.3053 4.63453 22.382C4.74096 22.4587 4.86882 22.5 5 22.5H7.5C7.63118 22.5 7.75904 22.4587 7.86547 22.382C7.97189 22.3053 8.05148 22.1971 8.09297 22.0727L8.57578 20.625H9.375C9.70639 20.6254 10.0241 20.7573 10.2584 20.9916C10.4927 21.2259 10.6246 21.5436 10.625 21.875V31.875ZM5.24219 20.625H7.25781L7.04922 21.25H5.45078L5.24219 20.625ZM11.875 28.75V26.875H23.125V28.75H11.875ZM23.125 30V31.25H22.9883L22.6758 30H23.125ZM21.6992 31.25H18.3008L18.6133 30H21.3867L21.6992 31.25ZM15.625 33.125V32.5H23.2039C23.2611 32.7191 23.3479 32.9293 23.4617 33.125H15.625ZM23.125 15.625V25.625H11.875V21.875C11.8741 21.2122 11.6105 20.5768 11.1418 20.1082C10.6732 19.6395 10.0378 19.3759 9.375 19.375H5.625V8.125C5.62543 7.79361 5.75727 7.47592 5.9916 7.2416C6.22592 7.00727 6.54361 6.87543 6.875 6.875H33.125C33.4564 6.87543 33.7741 7.00727 34.0084 7.2416C34.2427 7.47592 34.3746 7.79361 34.375 8.125V13.125H25.625C24.9622 13.1259 24.3268 13.3895 23.8582 13.8582C23.3895 14.3268 23.1259 14.9622 23.125 15.625ZM38.125 31.875C38.1246 32.2064 37.9927 32.5241 37.7584 32.7584C37.5241 32.9927 37.2064 33.1246 36.875 33.125H25.625C25.2936 33.1246 24.9759 32.9927 24.7416 32.7584C24.5073 32.5241 24.3754 32.2064 24.375 31.875V15.625C24.3754 15.2936 24.5073 14.9759 24.7416 14.7416C24.9759 14.5073 25.2936 14.3754 25.625 14.375H36.875C37.2064 14.3754 37.5241 14.5073 37.7584 14.7416C37.9927 14.9759 38.1246 15.2936 38.125 15.625V31.875Z" fill="#3BB667"/>
<path d="M36.875 15H25.625C25.4592 15 25.3003 15.0658 25.1831 15.1831C25.0658 15.3003 25 15.4592 25 15.625V30C25 30.1658 25.0658 30.3247 25.1831 30.4419C25.3003 30.5592 25.4592 30.625 25.625 30.625H36.875C37.0408 30.625 37.1997 30.5592 37.3169 30.4419C37.4342 30.3247 37.5 30.1658 37.5 30V15.625C37.5 15.4592 37.4342 15.3003 37.3169 15.1831C37.1997 15.0658 37.0408 15 36.875 15ZM36.25 29.375H26.25V16.25H36.25V29.375Z" fill="#3BB667"/>
<path d="M30.625 32.5C30.9702 32.5 31.25 32.2202 31.25 31.875C31.25 31.5298 30.9702 31.25 30.625 31.25C30.2798 31.25 30 31.5298 30 31.875C30 32.2202 30.2798 32.5 30.625 32.5Z" fill="#3BB667"/>
</svg>
