<svg width="40" height="40" viewBox="0 0 40 40" fill="none" xmlns="http://www.w3.org/2000/svg">
<g clip-path="url(#clip0_23_126)">
<path d="M30.0183 5.56317C29.7129 5.25856 29.2185 5.25856 28.9139 5.56317C28.6085 5.86857 28.6085 6.36302 28.9139 6.66841C29.2185 6.97302 29.7129 6.97302 30.0183 6.66841C30.3229 6.36302 30.3229 5.86857 30.0183 5.56317Z" fill="#3BB667"/>
<path d="M38.8543 5.56324L34.4365 1.14565C32.9104 -0.380523 30.44 -0.382242 28.9134 1.14557C28.9134 1.14557 5.24347 24.7016 4.29003 25.9137C4.28948 25.9144 4.28886 25.9151 4.28831 25.9158C4.2873 25.9171 4.28612 25.9184 4.28511 25.9198C2.84659 27.7441 1.8451 29.9138 1.38854 32.1944L0.014709 39.0661C-0.0365412 39.3221 0.0436153 39.587 0.228225 39.7716C0.413538 39.9567 0.678773 40.0363 0.933695 39.9851C1.71713 39.8284 6.95504 38.7806 7.80543 38.6105C10.0853 38.1549 12.255 37.1537 14.079 35.7156C15.2936 34.7615 36.9286 13.0124 38.8539 11.0866C40.3812 9.56059 40.3814 7.09051 38.8543 5.56324ZM25.047 7.22027L26.7037 8.87723L8.33191 27.2491C7.72285 27.8582 6.73152 27.8583 6.12238 27.2491C5.94035 27.067 5.81019 26.8495 5.73621 26.61C6.43519 25.7695 5.618 26.6769 25.047 7.22027ZM27.8082 9.98215L30.0177 12.1917L11.6461 30.5633C11.0369 31.1725 10.0458 31.1724 9.4366 30.5633C9.14137 30.2681 8.97871 29.8757 8.97871 29.4585C8.97871 29.0413 9.14137 28.649 9.4366 28.3538L27.8082 9.98215ZM1.7762 38.2235L2.25206 35.8436L4.15605 37.7475L1.7762 38.2235ZM7.49918 37.0787L5.99699 37.3792L2.62018 34.0024L2.92042 32.5006C3.23886 30.9095 3.85511 29.3795 4.72081 28.0085C4.81112 28.1302 4.90988 28.2459 5.01777 28.3538C5.64777 28.9838 6.51464 29.3173 7.4234 29.2606C7.36676 30.1721 7.69746 31.0335 8.33191 31.6679C8.96527 32.3013 9.83418 32.6315 10.7393 32.5745C10.6849 33.4394 10.9866 34.3225 11.646 34.982C11.7539 35.0899 11.8696 35.1886 11.9913 35.279C10.62 36.1449 9.09004 36.7609 7.49918 37.0787ZM14.2846 33.4478C13.9986 33.7338 13.6988 34.0068 13.39 34.2637C13.1504 34.1896 12.9328 34.0595 12.7507 33.8774C12.1416 33.2683 12.1416 32.2772 12.7507 31.668L31.1225 13.2962L32.7795 14.9529L14.2846 33.4478ZM37.7496 9.982L36.0931 11.6391L32.2269 7.77301C31.9218 7.46801 31.4273 7.46801 31.1222 7.77301C30.8172 8.07801 30.8172 8.57262 31.1222 8.8777L34.9885 12.744L33.8841 13.8483L31.675 11.6398C31.6749 11.6397 31.6748 11.6396 31.6746 11.6394L26.1517 6.11582L30.0181 2.25011C30.9336 1.33401 32.4152 1.33378 33.3319 2.25034L37.7497 6.66801C38.6659 7.58418 38.6665 9.06575 37.7496 9.982Z" fill="#3BB667"/>
<path d="M17.8163 38.4301H13.1299C12.6985 38.4301 12.3488 38.7798 12.3488 39.2112C12.3488 39.6425 12.6985 39.9922 13.1299 39.9922H17.8163C18.2477 39.9922 18.5974 39.6425 18.5974 39.2112C18.5974 38.7798 18.2477 38.4301 17.8163 38.4301Z" fill="#3BB667"/>
<path d="M27.1893 38.4301H22.5028C22.0714 38.4301 21.7217 38.7798 21.7217 39.2112C21.7217 39.6425 22.0714 39.9922 22.5028 39.9922H27.1893C27.6206 39.9922 27.9704 39.6425 27.9704 39.2112C27.9704 38.7798 27.6206 38.4301 27.1893 38.4301Z" fill="#3BB667"/>
<path d="M36.5622 38.4301H31.8757C31.4444 38.4301 31.0946 38.7798 31.0946 39.2112C31.0946 39.6425 31.4444 39.9922 31.8757 39.9922H36.5622C36.9935 39.9922 37.3433 39.6425 37.3433 39.2112C37.3433 38.7798 36.9935 38.4301 36.5622 38.4301Z" fill="#3BB667"/>
</g>
<defs>
<clipPath id="clip0_23_126">
<rect width="40" height="40" fill="white"/>
</clipPath>
</defs>
</svg>
