<svg width="29" height="29" viewBox="0 0 29 29" fill="none" xmlns="http://www.w3.org/2000/svg">
<path d="M11.5334 14.6919C10.4936 14.2479 9.33197 14.1782 8.2465 14.4947C7.16104 14.8112 6.21891 15.4943 5.58067 16.4276C4.94243 17.3609 4.64757 18.4866 4.74635 19.613C4.84513 20.7393 5.33143 21.7966 6.12238 22.6045C6.91333 23.4125 7.95998 23.9212 9.08397 24.0439C10.208 24.1666 11.3397 23.8958 12.2864 23.2776C13.2331 22.6593 13.9361 21.7319 14.2756 20.6535C14.6151 19.575 14.5701 18.4121 14.1484 17.3631C13.9107 16.7671 13.5572 16.2242 13.1084 15.7657C12.6595 15.3072 12.1242 14.9422 11.5334 14.6919ZM12.9791 20.6175C12.6474 21.3951 12.0564 22.0337 11.3067 22.4244C10.557 22.8151 9.69499 22.9338 8.8676 22.7602C8.04021 22.5866 7.2986 22.1316 6.76913 21.4725C6.23966 20.8134 5.95509 19.9912 5.96391 19.1458C5.97273 18.3004 6.27439 17.4843 6.8175 16.8364C7.3606 16.1885 8.11155 15.749 8.94238 15.5928C9.77321 15.4365 10.6325 15.5731 11.3739 15.9794C12.1153 16.3857 12.6929 17.0364 13.0082 17.8208C13.1886 18.2657 13.2788 18.742 13.2738 19.2221C13.2688 19.7021 13.1686 20.1764 12.9791 20.6175Z" fill="white"/>
<path d="M18.8649 16.774L17.9607 14.524C17.8997 14.3726 17.7811 14.2516 17.6309 14.1876C17.4808 14.1236 17.3113 14.1218 17.1598 14.1827L15.838 14.7142C15.3859 14.0823 14.8388 13.524 14.2162 13.0591L14.7755 11.7481C14.8074 11.6737 14.8244 11.5938 14.8253 11.5128C14.8263 11.4319 14.8112 11.3516 14.7811 11.2765C14.7509 11.2014 14.7063 11.1329 14.6496 11.0751C14.593 11.0173 14.5255 10.9712 14.4511 10.9395L12.2207 9.98817C12.1464 9.95618 12.0664 9.93919 11.9854 9.93819C11.9045 9.93719 11.8241 9.9522 11.749 9.98235C11.6739 10.0125 11.6054 10.0572 11.5476 10.1139C11.4898 10.1706 11.4438 10.2381 11.4121 10.3127L10.8528 11.624C10.0866 11.4961 9.30515 11.4878 8.53637 11.5994L8.00445 10.2775C7.94358 10.1261 7.82512 10.0051 7.67509 9.94107C7.52506 9.87699 7.35573 9.8751 7.2043 9.93579L4.9543 10.8407C4.87931 10.8708 4.81099 10.9155 4.75325 10.972C4.69551 11.0285 4.64947 11.0959 4.61777 11.1702C4.58607 11.2446 4.56933 11.3244 4.5685 11.4053C4.56766 11.4861 4.58276 11.5662 4.61293 11.6412L5.14484 12.9631C4.51291 13.4151 3.9546 13.962 3.48969 14.5845L2.17836 14.0255C2.10399 13.9935 2.02402 13.9765 1.94307 13.9755C1.86211 13.9745 1.78175 13.9895 1.70662 14.0197C1.63148 14.0499 1.56304 14.0946 1.50523 14.1512C1.44742 14.2079 1.40139 14.2755 1.36976 14.35L0.418788 16.5803C0.386886 16.6547 0.369974 16.7347 0.369023 16.8156C0.368071 16.8965 0.383097 16.9768 0.413241 17.052C0.443385 17.1271 0.488053 17.1955 0.544687 17.2533C0.601321 17.3111 0.668808 17.3572 0.74328 17.3889L2.05461 17.9483C1.92812 18.7152 1.92101 19.497 2.03351 20.2661L0.711287 20.797C0.636287 20.8271 0.567964 20.8718 0.510219 20.9284C0.452474 20.9849 0.406437 21.0523 0.374738 21.1267C0.343039 21.2011 0.326298 21.281 0.325472 21.3618C0.324645 21.4426 0.339749 21.5228 0.369921 21.5978L1.27449 23.8478C1.3355 23.9991 1.454 24.1199 1.604 24.1839C1.754 24.2479 1.92325 24.2498 2.07465 24.1892L3.39687 23.6573C3.84887 24.2892 4.39579 24.8475 5.01828 25.3124L4.45894 26.6234C4.4271 26.6978 4.41024 26.7778 4.40934 26.8587C4.40844 26.9397 4.4235 27.02 4.45367 27.0951C4.48385 27.1702 4.52853 27.2386 4.58518 27.2964C4.64182 27.3542 4.70931 27.4003 4.78379 27.432L7.0141 28.3812C7.08845 28.4132 7.16839 28.4303 7.24933 28.4313C7.33027 28.4323 7.41062 28.4173 7.48575 28.3872C7.56089 28.3571 7.62933 28.3124 7.68716 28.2558C7.74498 28.1991 7.79104 28.1316 7.82269 28.0571L8.38203 26.7454C9.14828 26.8731 9.92968 26.8814 10.6985 26.77L11.2304 28.0919C11.2913 28.2433 11.4097 28.3643 11.5598 28.4283C11.7098 28.4923 11.8792 28.4941 12.0305 28.4333L14.2805 27.5291C14.3555 27.4989 14.4238 27.4542 14.4815 27.3977C14.5392 27.3411 14.5852 27.2738 14.6169 27.1994C14.6485 27.1251 14.6652 27.0452 14.666 26.9645C14.6669 26.8837 14.6517 26.8035 14.6216 26.7285L14.0886 25.4063C14.7204 24.9541 15.2785 24.4071 15.7434 23.7846L17.0547 24.3442C17.1291 24.3763 17.2091 24.3934 17.29 24.3944C17.371 24.3955 17.4514 24.3805 17.5266 24.3503C17.6017 24.3202 17.6702 24.2754 17.728 24.2187C17.7858 24.162 17.8318 24.0943 17.8633 24.0198L18.8146 21.7894C18.8464 21.7152 18.8631 21.6354 18.864 21.5546C18.8649 21.4738 18.8498 21.3937 18.8197 21.3188C18.7895 21.2438 18.7449 21.1756 18.6884 21.1179C18.6318 21.0602 18.5645 21.0142 18.4902 20.9826L17.1785 20.4236C17.3063 19.6571 17.3147 18.8755 17.2034 18.1065L18.5253 17.5749C18.6765 17.5137 18.7972 17.395 18.8609 17.2448C18.9246 17.0946 18.9261 16.9253 18.8649 16.774ZM16.2785 17.1506C16.1439 17.2046 16.0328 17.3044 15.9647 17.4324C15.8966 17.5604 15.8758 17.7084 15.9062 17.8502C16.1049 18.7746 16.0948 19.7317 15.8766 20.6518C15.8434 20.7928 15.8611 20.941 15.9265 21.0703C15.9919 21.1996 16.1009 21.3016 16.2342 21.3584L17.4393 21.8724L16.9707 22.9707L15.7655 22.4571C15.6323 22.3998 15.483 22.3916 15.3443 22.4339C15.2056 22.4761 15.0863 22.5662 15.0076 22.688C14.4949 23.4824 13.8112 24.1522 13.0065 24.6483C12.8834 24.7248 12.7913 24.8421 12.7462 24.9798C12.7012 25.1175 12.7062 25.2667 12.7604 25.401L13.2487 26.6167L12.1409 27.0618L11.6523 25.8465C11.6066 25.7324 11.5279 25.6347 11.4262 25.5658C11.3245 25.4968 11.2045 25.4599 11.0817 25.4598C11.0384 25.4596 10.9953 25.4642 10.953 25.4735C10.0286 25.6722 9.07144 25.6621 8.15141 25.4439C8.0104 25.4103 7.86203 25.4277 7.73265 25.4931C7.60327 25.5585 7.50127 25.6676 7.44476 25.8011L6.93078 27.008L5.8325 26.5394L6.34648 25.3342C6.40325 25.2009 6.41118 25.0519 6.36887 24.9133C6.32655 24.7747 6.23671 24.6555 6.11516 24.5766C5.3206 24.0641 4.6507 23.3804 4.15449 22.5755C4.07793 22.4526 3.96054 22.3606 3.8229 22.3156C3.68526 22.2706 3.53618 22.2755 3.4018 22.3294L2.18644 22.8181L1.74101 21.7103L2.95637 21.2217C3.09078 21.1676 3.20178 21.0678 3.26983 20.9398C3.33787 20.8119 3.35858 20.6641 3.32832 20.5224C3.12958 19.598 3.13967 18.6408 3.35785 17.7208C3.39106 17.5798 3.3734 17.4315 3.30799 17.3023C3.24258 17.173 3.13361 17.0709 3.00031 17.0142L1.79515 16.5005L2.26344 15.4019L3.46894 15.9152C3.60212 15.9723 3.75121 15.9805 3.88982 15.9382C4.02843 15.8959 4.1476 15.8059 4.22621 15.6842C4.73905 14.89 5.4227 14.2203 6.2273 13.7239C6.35045 13.6475 6.44267 13.53 6.48769 13.3922C6.53271 13.2545 6.52765 13.1052 6.4734 12.9708L5.98472 11.7558L7.09285 11.3104L7.58152 12.5254C7.63544 12.66 7.7352 12.7711 7.86315 12.8393C7.99111 12.9074 8.13904 12.9281 8.28078 12.8977C9.20524 12.6994 10.1623 12.7093 11.0824 12.9269C11.2234 12.9602 11.3716 12.9426 11.5009 12.8773C11.6302 12.8119 11.7322 12.703 11.789 12.5697L12.303 11.3642L13.4013 11.8328L12.8873 13.038C12.8305 13.1713 12.8226 13.3204 12.8649 13.4589C12.9072 13.5975 12.9971 13.7167 13.1186 13.7956C13.913 14.3084 14.5828 14.9922 15.0789 15.797C15.1556 15.92 15.273 16.012 15.4107 16.057C15.5484 16.102 15.6976 16.0971 15.832 16.0431L17.0484 15.5552L17.4938 16.6629L16.2785 17.1506Z" fill="white"/>
<path d="M21.5452 4.66382C20.9541 4.66382 20.3764 4.83908 19.885 5.16743C19.3935 5.49579 19.0105 5.9625 18.7844 6.50853C18.5582 7.05457 18.499 7.65541 18.6143 8.23508C18.7296 8.81475 19.0142 9.34721 19.4321 9.76513C19.8501 10.1831 20.3825 10.4677 20.9622 10.583C21.5418 10.6983 22.1427 10.6391 22.6887 10.4129C23.2348 10.1867 23.7015 9.80372 24.0298 9.3123C24.3582 8.82088 24.5334 8.24313 24.5334 7.6521C24.5324 6.85987 24.2173 6.10038 23.6571 5.5402C23.0969 4.98001 22.3374 4.66484 21.5452 4.66382ZM21.5452 9.40991C21.1975 9.40991 20.8576 9.30682 20.5686 9.11367C20.2795 8.92052 20.0542 8.64598 19.9212 8.32479C19.7881 8.00359 19.7533 7.65015 19.8211 7.30917C19.889 6.96818 20.0564 6.65497 20.3022 6.40914C20.548 6.1633 20.8612 5.99589 21.2022 5.92806C21.5432 5.86024 21.8967 5.89505 22.2178 6.02809C22.539 6.16114 22.8136 6.38644 23.0067 6.67551C23.1999 6.96458 23.303 7.30444 23.303 7.6521C23.3024 8.11813 23.117 8.56491 22.7875 8.89444C22.458 9.22398 22.0112 9.40935 21.5452 9.40991Z" fill="white"/>
<path d="M28.0589 6.14607H27.1385C27.0092 5.66145 26.8164 5.19605 26.5651 4.76198L27.2162 4.11053C27.3315 3.99516 27.3962 3.83874 27.3962 3.67565C27.3962 3.51255 27.3315 3.35613 27.2162 3.24077L25.9562 1.98077C25.8991 1.92359 25.8312 1.87823 25.7566 1.84728C25.6819 1.81633 25.6019 1.8004 25.5211 1.8004C25.4403 1.8004 25.3603 1.81633 25.2856 1.84728C25.211 1.87823 25.1432 1.92359 25.0861 1.98077L24.435 2.63221C24.001 2.38103 23.5357 2.18823 23.0512 2.05882V1.13843C23.0513 1.05762 23.0354 0.977597 23.0045 0.902933C22.9736 0.828268 22.9283 0.760427 22.8711 0.703288C22.814 0.646149 22.7461 0.600833 22.6715 0.569931C22.5968 0.539029 22.5168 0.523147 22.436 0.523193H20.6543C20.5735 0.523147 20.4934 0.539029 20.4188 0.569931C20.3441 0.600833 20.2763 0.646149 20.2191 0.703288C20.162 0.760427 20.1167 0.828268 20.0858 0.902933C20.0549 0.977597 20.039 1.05762 20.039 1.13843V2.05882C19.5546 2.18836 19.0893 2.38115 18.6553 2.63221L18.0042 1.98147C17.9471 1.92429 17.8793 1.87893 17.8046 1.84799C17.73 1.81704 17.6499 1.80111 17.5691 1.80111C17.4883 1.80111 17.4083 1.81704 17.3336 1.84799C17.259 1.87893 17.1912 1.92429 17.1341 1.98147L15.8741 3.24147C15.7588 3.35684 15.694 3.51326 15.694 3.67635C15.694 3.83945 15.7588 3.99587 15.8741 4.11123L16.5252 4.76198C16.2739 5.19583 16.0811 5.66099 15.9518 6.14537H15.0314C14.8682 6.14537 14.7117 6.21019 14.5963 6.32557C14.481 6.44095 14.4161 6.59744 14.4161 6.76061V8.54267C14.4161 8.70584 14.481 8.86233 14.5963 8.97771C14.7117 9.09309 14.8682 9.15791 15.0314 9.15791H15.9518C16.0812 9.64224 16.274 10.1074 16.5252 10.5413L15.8741 11.1927C15.8169 11.2498 15.7715 11.3176 15.7406 11.3922C15.7097 11.4669 15.6937 11.5468 15.6937 11.6276C15.6937 11.7084 15.7097 11.7884 15.7406 11.863C15.7715 11.9376 15.8169 12.0054 15.8741 12.0625L17.1341 13.3222C17.1912 13.3793 17.259 13.4247 17.3336 13.4556C17.4083 13.4866 17.4883 13.5025 17.5691 13.5025C17.6499 13.5025 17.73 13.4866 17.8046 13.4556C17.8793 13.4247 17.9471 13.3793 18.0042 13.3222L18.6549 12.6721C19.0891 12.9232 19.5545 13.1161 20.039 13.2459V14.1663C20.039 14.2471 20.0549 14.3271 20.0858 14.4018C20.1167 14.4764 20.162 14.5443 20.2191 14.6014C20.2763 14.6585 20.3441 14.7038 20.4188 14.7348C20.4934 14.7657 20.5735 14.7815 20.6543 14.7815H22.436C22.5168 14.7815 22.5968 14.7657 22.6715 14.7348C22.7461 14.7038 22.814 14.6585 22.8711 14.6014C22.9283 14.5443 22.9736 14.4764 23.0045 14.4018C23.0354 14.3271 23.0513 14.2471 23.0512 14.1663V13.2459C23.5358 13.1164 24.0012 12.9235 24.4353 12.6721L25.0861 13.3229C25.1432 13.38 25.211 13.4254 25.2856 13.4563C25.3603 13.4873 25.4403 13.5032 25.5211 13.5032C25.6019 13.5032 25.6819 13.4873 25.7566 13.4563C25.8312 13.4254 25.8991 13.38 25.9562 13.3229L27.2162 12.0632C27.2733 12.0061 27.3187 11.9383 27.3496 11.8637C27.3806 11.7891 27.3965 11.7091 27.3965 11.6283C27.3965 11.5475 27.3806 11.4676 27.3496 11.3929C27.3187 11.3183 27.2733 11.2505 27.2162 11.1934L26.5651 10.542C26.8162 10.1081 27.009 9.64295 27.1385 9.15861H28.0589C28.222 9.15861 28.3785 9.09379 28.4939 8.97841C28.6093 8.86303 28.6741 8.70655 28.6741 8.54338V6.76131C28.6741 6.59814 28.6093 6.44165 28.4939 6.32627C28.3785 6.21089 28.222 6.14607 28.0589 6.14607ZM27.4436 7.92814H26.6445C26.4996 7.92815 26.3593 7.97932 26.2483 8.07264C26.1374 8.16596 26.0629 8.29543 26.0381 8.43826C25.9245 9.09926 25.6645 9.7265 25.2773 10.2741C25.194 10.3926 25.1552 10.5368 25.1678 10.6811C25.1803 10.8254 25.2434 10.9606 25.3459 11.063L25.9112 11.6283L25.5213 12.0179L24.9556 11.4526C24.8531 11.3502 24.7177 11.2872 24.5734 11.2748C24.429 11.2624 24.2849 11.3013 24.1664 11.3847C23.6187 11.7716 22.9914 12.0313 22.3305 12.1448C22.1878 12.1697 22.0585 12.2442 21.9653 12.355C21.8721 12.4659 21.8209 12.606 21.8207 12.7509V13.551H21.2695V12.7516C21.2694 12.6067 21.2183 12.4665 21.125 12.3557C21.0318 12.2448 20.9024 12.1704 20.7597 12.1455C20.0988 12.0318 19.4715 11.7718 18.9239 11.3847C18.8054 11.3011 18.6613 11.2621 18.5169 11.2745C18.3724 11.2869 18.237 11.35 18.1346 11.4526L17.569 12.0179L17.1791 11.6283L17.7444 11.063C17.8471 10.9609 17.9105 10.8257 17.9234 10.6814C17.9362 10.5371 17.8977 10.3928 17.8147 10.2741C17.4275 9.7265 17.1675 9.09926 17.0539 8.43826C17.0291 8.29543 16.9546 8.16596 16.8437 8.07264C16.7327 7.97932 16.5924 7.92815 16.4475 7.92814H15.6466V7.37654H16.4457C16.5907 7.3766 16.731 7.32546 16.842 7.23213C16.953 7.1388 17.0274 7.00928 17.0522 6.86643C17.1657 6.20545 17.4255 5.57821 17.8126 5.03057C17.896 4.91213 17.935 4.76802 17.9225 4.62367C17.91 4.47932 17.8469 4.34402 17.7444 4.24166L17.1791 3.67635L17.569 3.28542L18.1346 3.85073C18.237 3.95315 18.3723 4.01614 18.5166 4.02861C18.6609 4.04109 18.805 4.00225 18.9235 3.91893C19.4712 3.53181 20.0984 3.27189 20.7594 3.15815C20.9022 3.13345 21.0317 3.0591 21.125 2.9482C21.2184 2.83731 21.2695 2.697 21.2695 2.55206V1.75366H21.8207V2.55311C21.8208 2.69804 21.8719 2.83831 21.9653 2.94919C22.0586 3.06007 22.1881 3.13444 22.3309 3.1592C22.9921 3.27221 23.6197 3.53153 24.1678 3.91823C24.2861 4.0018 24.4303 4.04082 24.5746 4.0284C24.719 4.01599 24.8543 3.95293 24.9567 3.85038L25.5213 3.28542L25.9112 3.6753L25.3459 4.24166C25.2433 4.34402 25.1802 4.47932 25.1678 4.62367C25.1553 4.76802 25.1942 4.91213 25.2777 5.03057C25.6648 5.57821 25.9246 6.20545 26.0381 6.86643C26.0629 7.00928 26.1373 7.1388 26.2482 7.23213C26.3592 7.32546 26.4995 7.3766 26.6445 7.37654H27.4436V7.92814Z" fill="white"/>
</svg>
