<svg width="35" height="35" viewBox="0 0 35 35" fill="none" xmlns="http://www.w3.org/2000/svg">
<g clip-path="url(#clip0_28_156)">
<path d="M34.5501 2.38086C34.462 2.27634 34.336 2.21106 34.1999 2.19944L26.5827 1.54886L26.4446 0.451145C26.4091 0.168752 26.1507 -0.0314041 25.869 0.00407437L18.8029 0.892473C18.7751 0.885227 18.7466 0.879758 18.7169 0.877229L9.00471 0.0476193C8.72505 0.0230099 8.47116 0.238069 8.44737 0.51718L8.30259 2.21249L0.779708 3.15831C0.501349 3.19331 0.297707 3.45533 0.332638 3.7339L4.17266 34.2774C4.19009 34.4167 4.16022 34.5506 4.21716 34.6853C4.297 34.8741 4.48704 35 4.69205 35H29.9788C30.2635 35 30.4942 34.7694 30.4942 34.4847V33.8135L31.4923 33.8987C31.7719 33.923 32.0258 33.7084 32.0496 33.4291L34.6693 2.75691C34.681 2.62067 34.6382 2.48545 34.5501 2.38086ZM4.17669 26.0465L1.41969 4.11664L4.17669 3.77006V26.0465ZM9.43052 1.11847L13.9409 1.50367L9.34835 2.08111L9.43052 1.11847ZM25.4863 1.09106L25.7496 3.18538H8.82718L25.4863 1.09106ZM31.0665 32.8279L30.4942 32.779V17.7184C30.4942 17.4337 30.2635 17.203 29.9788 17.203C29.6941 17.203 29.4634 17.4337 29.4634 17.7184V33.9692H5.20741V4.21611H29.4635V15.3134C29.4635 15.5981 29.6942 15.8288 29.9789 15.8288C30.2636 15.8288 30.4942 15.5981 30.4942 15.3134V3.70074C30.4942 3.4161 30.2636 3.18538 29.9789 3.18538H26.7885L26.7142 2.59455L33.5986 3.18258L31.0665 32.8279Z" fill="white"/>
<path d="M27.2303 5.93408H24.4817C24.3094 5.93408 24.1485 6.02015 24.053 6.16356L22.8865 7.91329C21.6309 7.01389 20.0937 6.48376 18.4349 6.48376C18.1503 6.48376 17.9196 6.7144 17.9196 6.99912V14.1454C17.9196 14.4301 18.1502 14.6608 18.4349 14.6608H25.5812C25.8659 14.6608 26.0966 14.4301 26.0966 14.1454C26.0966 11.9513 25.1692 9.96995 23.6862 8.57186L24.7576 6.9648H27.2304C27.515 6.9648 27.7457 6.73416 27.7457 6.44944C27.7457 6.16473 27.515 5.93408 27.2303 5.93408ZM25.046 13.63H18.9503V7.53431C20.2001 7.63083 21.3531 8.07653 22.314 8.77209L21.8541 9.4619C21.7105 9.67724 21.7526 9.97549 21.951 10.1421C22.1833 10.3372 22.5436 10.2857 22.7117 10.0337L23.1052 9.44331C24.201 10.5317 24.92 11.999 25.046 13.63Z" fill="white"/>
<path d="M27.2302 22.9751H22.5684L21.747 21.6609C23.0776 20.2821 23.8975 18.4071 23.8975 16.3443C23.8975 16.0596 23.6669 15.8289 23.3822 15.8289H16.7512V9.19798C16.7512 8.91333 16.5205 8.68262 16.2359 8.68262C12.0113 8.68262 8.57422 12.1197 8.57422 16.3443C8.57422 20.5689 12.0113 24.0059 16.2359 24.0059C18.0216 24.0059 19.6665 23.3918 20.9707 22.3637L21.8457 23.7637C21.9399 23.9144 22.1051 24.0059 22.2827 24.0059H27.2302C27.5148 24.0059 27.7455 23.7753 27.7455 23.4906C27.7455 23.2058 27.5148 22.9751 27.2302 22.9751ZM19.9713 18.8197C19.8205 18.5782 19.5024 18.5049 19.2611 18.6558C19.0197 18.8066 18.9463 19.1246 19.0972 19.366L20.4209 21.4839C19.2787 22.4157 17.8215 22.9753 16.2359 22.9753C12.5797 22.9753 9.60501 20.0006 9.60501 16.3443C9.60501 12.8614 12.3042 9.9971 15.7206 9.73323V16.3443C15.7206 16.629 15.9513 16.8597 16.2359 16.8597H22.847C22.7319 18.35 22.1219 19.7037 21.1817 20.7565L19.9713 18.8197Z" fill="white"/>
<path d="M11.8382 25.7236H7.44053C7.15595 25.7236 6.92517 25.9543 6.92517 26.239C6.92517 26.5237 7.15588 26.7544 7.44053 26.7544H11.8382C12.1229 26.7544 12.3536 26.5237 12.3536 26.239C12.3536 25.9543 12.1229 25.7236 11.8382 25.7236Z" fill="white"/>
<path d="M18.4349 25.7236H14.0372C13.7526 25.7236 13.5219 25.9543 13.5219 26.239C13.5219 26.5237 13.7526 26.7544 14.0372 26.7544H18.4349C18.7196 26.7544 18.9503 26.5237 18.9503 26.239C18.9503 25.9543 18.7196 25.7236 18.4349 25.7236Z" fill="white"/>
<path d="M14.5868 28.4722H7.44053C7.15595 28.4722 6.92517 28.7028 6.92517 28.9875C6.92517 29.2722 7.15588 29.5029 7.44053 29.5029H14.5868C14.8715 29.5029 15.1022 29.2722 15.1022 28.9875C15.1022 28.7028 14.8714 28.4722 14.5868 28.4722Z" fill="white"/>
<path d="M18.4349 28.4722H16.7857C16.5012 28.4722 16.2704 28.7028 16.2704 28.9875C16.2704 29.2722 16.5011 29.5029 16.7857 29.5029H18.4349C18.7196 29.5029 18.9503 29.2722 18.9503 28.9875C18.9502 28.7028 18.7196 28.4722 18.4349 28.4722Z" fill="white"/>
<path d="M9.63938 31.2207H7.44053C7.15595 31.2207 6.92517 31.4513 6.92517 31.7361C6.92517 32.0208 7.15588 32.2514 7.44053 32.2514H9.63938C9.92403 32.2514 10.1547 32.0208 10.1547 31.7361C10.1547 31.4513 9.92403 31.2207 9.63938 31.2207Z" fill="white"/>
<path d="M18.4348 31.2207H11.8382C11.5537 31.2207 11.3229 31.4513 11.3229 31.7361C11.3229 32.0208 11.5536 32.2514 11.8382 32.2514H18.4348C18.7194 32.2514 18.9501 32.0208 18.9501 31.7361C18.9501 31.4513 18.7194 31.2207 18.4348 31.2207Z" fill="white"/>
</g>
<defs>
<clipPath id="clip0_28_156">
<rect width="35" height="35" fill="white"/>
</clipPath>
</defs>
</svg>
